<?xml version="1.0" encoding="utf-8"?>
<!-- Generator: Adobe Illustrator 21.1.0, SVG Export Plug-In . SVG Version: 6.00 Build 0)  -->
<svg version="1.1" id="_x30_" xmlns="http://www.w3.org/2000/svg" xmlns:xlink="http://www.w3.org/1999/xlink" x="0px" y="0px"
	 viewBox="0 0 128 74" style="enable-background:new 0 0 128 74;" xml:space="preserve">
<style type="text/css">
	.st0{fill:#ffffff;}
	.st1{fill:#0064ca;}
</style>
<g>
	<rect x="0.001" y="0" class="st0" width="127.999" height="74"/>
	<g>
		<polygon class="st1" points="122.206,33.651 104.736,3.349 91.127,3.349 98.897,16.826 108.598,33.651 		"/>
		<polygon class="st1" points="27.129,33.651 62.069,33.651 68.873,21.849 33.933,21.849 		"/>
		<polygon class="st1" points="44.599,3.35 37.796,15.15 72.736,15.15 74.741,11.672 79.54,3.35 64.001,3.35 		"/>
		<polygon class="st1" points="67.863,37 74.668,48.802 92.138,18.501 85.334,6.699 		"/>
		<polygon class="st1" points="0.001,58.849 0.001,67.301 4.874,58.849 		"/>
		<polygon class="st1" points="25.197,74 38.805,74 32.001,62.199 		"/>
		<polygon class="st1" points="102.805,37 96,25.199 78.53,55.5 85.334,67.302 93.104,53.825 		"/>
		<polygon class="st1" points="48.461,40.349 65.932,70.65 79.539,70.65 62.068,40.349 		"/>
		<polygon class="st1" points="97.933,58.849 91.128,70.65 126.069,70.65 128,67.301 128,58.849 		"/>
		<polygon class="st1" points="14.531,18.5 21.335,30.302 29.105,16.825 38.805,0 38.805,0 25.197,0 		"/>
		<polygon class="st1" points="10.668,11.802 17.472,0 3.864,0 3.864,0 		"/>
		<polygon class="st1" points="1.932,33.651 15.54,33.651 0,6.699 0,30.3 		"/>
		<polygon class="st1" points="112.461,3.35 127.999,30.3 127.999,6.699 126.068,3.35 		"/>
		<polygon class="st1" points="0.001,40.349 0.001,52.15 8.737,52.15 15.54,40.349 0.001,40.349 		"/>
		<polygon class="st1" points="4.85,72.289 3.864,73.999 3.865,74 17.472,74 28.138,55.501 21.334,43.699 		"/>
		<polygon class="st1" points="34.898,53.826 44.599,70.65 58.207,70.65 40.737,40.349 27.128,40.349 		"/>
		<polygon class="st1" points="108.598,40.349 101.795,52.15 128,52.15 127.999,40.349 		"/>
	</g>
</g>
</svg>
