<?xml version="1.0" standalone="no"?>
<!DOCTYPE svg PUBLIC "-//W3C//DTD SVG 20010904//EN"
 "http://www.w3.org/TR/2001/REC-SVG-20010904/DTD/svg10.dtd">
<svg version="1.0" xmlns="http://www.w3.org/2000/svg"
 width="800.000000pt" height="800.000000pt" viewBox="0 0 800.000000 800.000000"
 preserveAspectRatio="xMidYMid meet">
<metadata>
Created by potrace 1.11, written by Peter Selinger 2001-2013
</metadata>
<g transform="translate(0.000000,800.000000) scale(0.100000,-0.100000)"
fill="#000000" stroke="none">
<path d="M3860 7187 c0 -8 -20 -37 -44 -64 -45 -50 -64 -92 -51 -113 5 -8 17
-2 36 16 l29 28 0 -32 c0 -37 6 -39 40 -15 55 38 63 77 30 143 -22 42 -40 59
-40 37z"/>
<path d="M4115 7136 c-9 -14 -19 -43 -22 -65 -5 -36 -2 -44 30 -76 44 -44 57
-44 57 1 l0 35 23 -27 c14 -16 29 -24 35 -20 11 7 -30 77 -89 154 l-18 23 -16
-25z"/>
<path d="M4690 7098 c-146 -92 -180 -131 -180 -208 0 -45 17 -85 48 -113 19
-18 20 -17 26 27 8 48 38 101 73 123 l21 14 -14 -48 c-14 -43 -14 -146 0 -160
2 -3 25 5 51 16 34 15 49 29 60 55 19 44 29 221 18 297 l-8 57 -95 -60z"/>
<path d="M3171 7018 c1 -228 18 -279 96 -294 55 -10 66 8 53 92 -5 38 -10 80
-10 93 l0 25 29 -28 c27 -26 47 -76 53 -136 3 -24 5 -23 35 18 64 87 49 189
-39 252 -45 34 -190 110 -208 110 -6 0 -10 -48 -9 -132z"/>
<path d="M3578 7023 c-65 -74 -78 -114 -56 -171 7 -20 18 -37 23 -37 5 0 24
26 43 58 19 32 36 56 38 54 2 -2 0 -26 -5 -53 -5 -27 -8 -51 -5 -53 10 -10 74
73 80 105 8 44 -9 105 -39 139 l-22 24 -57 -66z"/>
<path d="M4317 7070 c-24 -38 -41 -112 -33 -151 6 -33 69 -109 81 -98 2 3 0
22 -6 43 -17 62 -5 63 31 4 38 -63 50 -63 70 -2 17 50 -1 91 -69 165 l-58 63
-16 -24z"/>
<path d="M3852 6940 c-61 -31 -106 -64 -170 -125 l-87 -83 28 -11 c16 -6 50
-11 76 -11 41 0 60 8 135 56 127 83 186 84 306 5 235 -154 405 -444 418 -713
4 -101 3 -109 -21 -150 -30 -52 -82 -84 -121 -74 -23 6 -44 41 -159 271 -72
146 -136 265 -141 265 -14 0 -75 -49 -86 -69 -7 -15 8 -53 74 -184 121 -241
188 -456 216 -702 13 -122 13 -366 -2 -462 -11 -75 -12 -76 -21 -43 -44 170
-88 272 -166 392 -67 103 -118 158 -146 158 -43 0 -155 -145 -226 -293 -38
-81 -79 -217 -79 -266 0 -20 -3 -22 -12 -13 -10 10 -13 86 -13 315 1 276 3
311 23 407 50 229 167 513 269 651 83 113 185 199 311 263 56 28 57 32 14 82
-38 44 -56 46 -116 14 -132 -69 -298 -231 -381 -371 -27 -46 -78 -149 -112
-229 -70 -164 -88 -190 -131 -190 -72 0 -122 84 -122 207 0 93 14 145 95 348
30 76 52 142 50 146 -9 14 -83 21 -104 9 -26 -14 -81 -122 -156 -310 -32 -80
-59 -146 -60 -147 -1 -2 -49 26 -107 61 -208 125 -369 176 -553 176 -136 0
-214 -18 -318 -72 -143 -75 -260 -215 -310 -373 -17 -53 -22 -95 -22 -172 0
-56 5 -107 10 -112 6 -5 38 -13 73 -17 l62 -7 0 89 c1 225 85 385 249 472 202
109 489 54 811 -156 259 -168 356 -392 310 -717 -15 -102 -27 -133 -61 -151
-40 -20 -78 -9 -225 68 -66 33 -157 78 -204 99 -85 38 -85 38 -92 16 -13 -47
-9 -113 10 -129 9 -8 67 -41 127 -73 355 -186 532 -380 605 -666 29 -111 38
-286 17 -314 -24 -31 -106 -26 -189 12 -310 143 -518 418 -600 796 -20 90 -22
130 -22 347 0 263 8 340 64 629 16 85 29 155 27 156 -1 1 -30 13 -64 28 l-61
26 -22 -81 c-60 -222 -97 -495 -107 -780 -3 -104 -9 -188 -12 -188 -3 0 -95
18 -204 41 -108 23 -200 39 -203 36 -11 -10 24 -92 49 -115 14 -13 56 -28 117
-41 52 -12 130 -33 173 -47 91 -30 96 -38 128 -171 16 -68 18 -92 9 -111 -11
-24 -13 -25 -93 -19 -146 12 -192 37 -265 145 -75 110 -133 242 -187 420 -43
144 -53 156 -124 149 -29 -3 -55 -8 -58 -11 -10 -10 60 -264 104 -376 25 -63
67 -157 94 -209 28 -51 49 -94 47 -96 -2 -1 -42 -10 -90 -20 -49 -9 -88 -19
-88 -21 0 -2 11 -27 24 -56 38 -86 35 -85 246 -91 205 -5 277 -19 419 -80 105
-46 193 -104 332 -220 239 -200 329 -387 209 -437 -53 -22 -277 -8 -384 24
-202 60 -354 155 -527 326 -183 182 -291 343 -450 668 -49 100 -96 185 -105
189 -24 9 -104 -33 -104 -54 0 -10 29 -82 64 -160 197 -438 412 -729 698 -943
56 -42 76 -74 62 -98 -27 -45 -231 -108 -379 -119 -241 -16 -490 101 -656 310
l-39 49 -10 -27 c-43 -114 -34 -161 43 -230 77 -70 231 -169 348 -223 126 -60
142 -79 114 -143 -26 -56 -79 -91 -140 -91 -125 0 -365 185 -415 320 -40 107
-44 264 -9 387 21 75 80 173 142 234 33 34 114 98 180 144 66 45 129 89 140
98 l21 17 -28 53 c-16 30 -32 58 -36 62 -9 10 -154 -61 -235 -116 -133 -90
-241 -220 -290 -350 -69 -184 -89 -481 -46 -684 34 -163 105 -336 184 -453
105 -154 334 -326 424 -318 53 4 66 34 54 120 -22 157 44 296 223 465 272 259
667 387 1012 328 325 -56 466 -176 496 -426 39 -311 -112 -609 -407 -806 -200
-134 -389 -178 -970 -223 -77 -6 -163 -18 -190 -25 -67 -19 -126 -71 -175
-156 -51 -87 -95 -114 -206 -130 -43 -6 -83 -15 -88 -20 -19 -18 66 -44 144
-44 86 1 107 10 202 86 144 116 227 139 511 139 l197 0 -19 -38 c-11 -20 -59
-82 -106 -137 -114 -131 -139 -169 -166 -246 -30 -86 -33 -258 -6 -337 10 -28
22 -52 27 -52 4 0 13 33 20 73 31 197 53 242 191 396 165 184 241 257 300 286
96 49 511 175 577 175 101 0 70 -165 -52 -277 -109 -100 -227 -140 -447 -152
l-139 -7 -61 -59 c-95 -93 -210 -227 -224 -260 -7 -16 -15 -46 -19 -66 -11
-63 15 -53 89 36 88 103 161 158 250 187 59 19 90 23 195 22 268 -2 319 -53
231 -230 -51 -101 -125 -190 -245 -295 -76 -66 -93 -85 -80 -92 45 -25 226 55
339 150 121 102 224 261 259 398 8 33 20 98 25 145 14 113 53 192 128 260 48
44 60 51 92 48 49 -4 63 -33 58 -122 -4 -60 -12 -84 -66 -191 -55 -108 -64
-134 -81 -238 -31 -181 -82 -288 -198 -409 -70 -74 -53 -85 54 -34 157 74 263
214 318 418 64 238 115 266 172 96 28 -85 145 -330 192 -400 32 -49 95 -93
169 -119 103 -35 106 -25 23 66 -101 112 -148 214 -175 376 -7 47 -25 113 -38
145 -14 33 -46 117 -72 189 -42 117 -46 133 -36 166 17 55 33 65 84 49 97 -28
177 -160 201 -332 18 -125 34 -176 87 -279 75 -144 207 -271 356 -341 77 -36
173 -60 173 -43 0 5 -60 70 -133 144 -149 152 -189 205 -218 288 -24 72 -24
104 2 136 29 38 85 49 249 51 128 1 152 -2 205 -22 91 -34 155 -84 237 -183
40 -49 76 -89 80 -89 13 0 18 55 9 88 -6 18 -23 51 -40 74 -58 79 -236 261
-268 274 -20 9 -72 14 -141 14 -288 0 -528 146 -549 335 -4 35 -1 47 17 65 20
20 30 22 89 17 86 -7 433 -116 524 -165 88 -47 165 -117 224 -200 26 -37 79
-99 118 -137 85 -84 117 -145 141 -270 9 -50 22 -103 29 -120 l12 -30 17 55
c9 30 20 93 23 140 10 154 -35 269 -163 413 -73 82 -156 189 -150 194 1 1 98
3 216 4 207 2 218 1 288 -24 45 -16 104 -48 155 -85 130 -94 179 -116 262
-117 81 0 164 28 133 46 -9 5 -48 13 -86 18 -38 5 -86 17 -105 26 -46 22 -99
80 -132 145 -31 61 -92 104 -169 119 -28 6 -176 22 -328 36 -402 37 -524 62
-694 140 -188 86 -353 246 -447 432 -90 177 -101 459 -23 628 49 108 135 165
318 211 140 35 353 44 491 20 253 -43 470 -152 655 -330 160 -154 216 -256
212 -391 -1 -44 -2 -97 -3 -119 -3 -104 118 -79 293 61 249 200 374 477 388
853 4 129 -9 315 -24 330 -14 14 -104 -152 -104 -192 0 -42 -29 -141 -61 -205
-54 -112 -175 -220 -320 -288 -81 -37 -111 -34 -168 20 -26 24 -56 60 -67 80
-24 45 -17 52 93 99 435 185 689 537 710 982 10 214 -41 359 -171 490 -67 66
-166 127 -243 149 -25 7 -36 -10 -48 -78 -7 -35 -6 -35 57 -68 37 -20 92 -63
134 -104 104 -104 133 -179 134 -341 0 -237 -85 -450 -254 -630 -240 -258
-507 -324 -843 -210 -164 56 -169 73 -55 178 176 165 304 300 391 416 50 67
94 128 97 136 6 15 -80 56 -116 56 -27 0 -61 -35 -169 -173 -262 -335 -557
-499 -917 -509 -161 -4 -185 26 -138 169 l28 83 115 107 c202 185 327 268 497
329 229 82 479 86 700 10 165 -56 336 -166 451 -289 l62 -67 31 52 c43 77 40
108 -17 169 -154 165 -423 299 -709 356 -77 15 -82 17 -74 37 4 12 36 79 69
150 34 70 61 130 61 132 0 8 -100 4 -124 -6 -14 -5 -38 -28 -53 -50 -75 -111
-164 -226 -181 -237 -21 -13 -159 -33 -225 -33 -25 0 -40 5 -44 16 -9 25 47
241 68 260 20 18 147 52 300 79 53 9 175 19 279 22 147 4 189 9 203 21 18 16
44 88 35 97 -3 3 -53 11 -111 17 -138 15 -311 0 -532 -46 -88 -19 -161 -33
-163 -31 -2 2 -6 29 -9 60 -6 56 -6 57 -34 51 -101 -20 -132 -58 -148 -185
-50 -393 -263 -695 -606 -858 -185 -87 -231 -37 -191 207 60 355 248 573 671
780 210 102 323 142 701 246 78 21 96 40 102 108 l5 57 -39 -7 c-87 -15 -319
-75 -425 -110 -173 -55 -297 -107 -481 -199 -200 -101 -253 -120 -291 -106
-39 15 -56 58 -68 173 -29 265 28 459 174 594 47 44 180 138 283 199 16 10 16
15 -5 78 -13 37 -24 67 -26 67 -1 0 -54 -31 -116 -70 -93 -56 -115 -66 -118
-52 -29 145 -144 389 -245 523 -78 104 -226 246 -325 314 -68 46 -77 50 -144
53 -68 3 -77 1 -155 -38z m182 -1763 c32 -37 95 -178 116 -262 12 -44 22 -118
23 -165 2 -75 -2 -95 -32 -173 -43 -114 -90 -167 -147 -167 -49 0 -87 25 -129
85 -53 73 -70 135 -70 245 1 82 6 109 37 200 45 133 95 237 122 255 25 18 54
11 80 -18z m-2471 -2011 c92 -76 167 -144 167 -150 0 -17 -38 -157 -44 -163
-15 -16 -146 115 -202 203 -60 94 -131 275 -100 257 7 -5 88 -71 179 -147z
m4998 44 c-50 -137 -153 -280 -251 -350 l-28 -20 -23 94 -23 94 34 29 c208
175 316 259 318 249 2 -7 -11 -50 -27 -96z"/>
<path d="M2910 6892 c-38 -15 -45 -22 -42 -42 4 -35 49 -131 74 -158 26 -27
88 -45 118 -34 22 8 22 9 -11 48 -70 82 -66 76 -37 65 15 -6 50 -22 79 -36
l52 -27 -7 54 c-15 118 -114 175 -226 130z"/>
<path d="M4900 6874 c-41 -35 -60 -74 -60 -124 0 -22 2 -40 5 -40 3 0 32 14
65 30 33 17 60 25 60 19 0 -6 -16 -31 -36 -55 l-36 -44 52 0 c46 0 56 4 85 33
34 34 83 164 68 177 -17 15 -78 30 -124 30 -37 0 -55 -6 -79 -26z"/>
<path d="M3892 6745 c-37 -56 -39 -74 -13 -106 21 -26 22 -25 39 41 l9 35 8
-40 c12 -65 20 -71 38 -32 24 51 21 73 -16 113 l-33 37 -32 -48z"/>
<path d="M2545 6738 c37 -170 57 -235 83 -267 33 -42 91 -65 132 -54 l29 8
-56 73 c-31 40 -53 75 -50 78 3 3 42 -19 86 -51 l81 -56 0 37 c0 120 -74 203
-215 240 -76 21 -96 19 -90 -8z"/>
<path d="M5317 6740 c-118 -37 -179 -103 -193 -207 -8 -66 -1 -67 80 -10 108
77 112 73 30 -33 l-56 -73 61 5 c99 7 135 54 170 227 11 57 21 105 21 107 0
10 -61 1 -113 -16z"/>
<path d="M4047 6696 c-25 -22 -37 -42 -37 -60 0 -26 13 -35 25 -16 9 15 25 12
25 -5 0 -15 25 -21 33 -7 3 4 8 33 12 65 9 69 -3 74 -58 23z"/>
<path d="M3300 6686 c-138 -30 -260 -93 -334 -176 -39 -43 -101 -161 -94 -180
2 -6 27 -21 55 -35 l52 -24 32 60 c134 250 439 321 740 171 l97 -48 48 41 47
41 -34 27 c-47 35 -171 93 -244 113 -82 22 -282 27 -365 10z"/>
<path d="M4491 6691 c-11 -7 -10 -15 9 -45 28 -46 53 -62 110 -71 71 -11 159
-44 206 -76 64 -44 112 -108 156 -211 89 -206 126 -347 173 -663 13 -93 27
-184 30 -201 l5 -31 48 15 c93 30 95 38 67 237 -31 216 -60 348 -105 485 -109
333 -264 504 -506 555 -77 16 -172 19 -193 6z"/>
<path d="M5494 6576 c-17 -8 -41 -26 -53 -41 -21 -27 -38 -72 -30 -80 3 -2 35
3 73 11 38 8 71 12 74 9 7 -7 8 -6 -70 -49 -38 -21 -68 -39 -68 -42 0 -2 13
-10 30 -19 67 -34 146 -10 218 69 40 43 91 131 81 139 -2 3 -53 7 -114 10 -82
5 -118 3 -141 -7z"/>
<path d="M2247 6573 l-27 -4 32 -60 c38 -72 116 -146 164 -155 39 -7 79 1 113
23 l24 15 -64 34 c-106 57 -104 66 7 38 36 -9 67 -14 70 -11 3 3 -4 26 -15 52
-27 62 -61 75 -183 74 -51 -1 -105 -4 -121 -6z"/>
<path d="M5846 6428 c-53 -70 -55 -138 -6 -183 21 -19 26 -15 33 35 3 24 4 23
22 -12 10 -21 22 -38 27 -38 18 0 20 53 3 93 -10 23 -25 64 -35 90 l-18 49
-26 -34z"/>
<path d="M2090 6433 c0 -10 -11 -42 -25 -71 -25 -55 -32 -106 -16 -130 6 -10
13 -1 26 30 10 24 19 39 20 33 2 -5 6 -23 10 -38 5 -24 8 -27 21 -16 63 52 53
162 -18 200 -14 8 -18 6 -18 -8z"/>
<path d="M3656 6390 c-41 -45 -47 -89 -21 -140 22 -42 31 -37 28 13 l-3 42 23
-48 c21 -46 24 -47 38 -30 28 32 28 51 3 125 -14 40 -27 74 -28 76 -2 1 -20
-16 -40 -38z"/>
<path d="M3140 6364 c-39 -64 -42 -106 -12 -136 l21 -21 26 54 25 54 -5 -57
c-3 -34 -1 -58 4 -58 6 0 22 20 37 45 20 35 25 53 20 77 -7 36 -51 98 -69 98
-7 0 -28 -25 -47 -56z"/>
<path d="M4771 6383 c-17 -21 -34 -52 -37 -69 -6 -33 12 -80 40 -103 14 -12
16 -7 16 48 0 74 12 73 29 -4 7 -30 16 -55 20 -55 15 0 41 60 41 95 0 40 -45
125 -67 125 -6 0 -25 -17 -42 -37z"/>
<path d="M1806 6286 c-28 -190 -19 -236 47 -252 32 -7 32 -8 12 106 -18 103
-18 100 -1 100 8 0 16 -16 20 -42 4 -24 18 -67 30 -97 l24 -54 27 42 c38 57
44 124 16 178 -23 46 -89 107 -131 121 l-27 10 -17 -112z"/>
<path d="M6095 6373 c-111 -58 -149 -169 -91 -267 14 -25 30 -47 35 -50 5 -4
19 32 31 78 12 46 26 90 31 97 19 31 21 -7 6 -98 -9 -53 -14 -99 -11 -102 2
-2 20 3 39 12 49 23 58 63 39 185 -27 182 -23 175 -79 145z"/>
<path d="M4352 6327 c-50 -60 -68 -191 -34 -257 16 -32 65 -71 76 -60 2 3 -2
36 -10 74 -8 38 -13 71 -11 73 2 2 22 -27 44 -64 22 -37 45 -69 50 -70 16 -6
53 60 53 93 0 16 -8 41 -18 56 -27 42 -126 167 -133 168 -4 0 -11 -6 -17 -13z"/>
<path d="M5360 6323 c-71 -6 -170 -25 -170 -34 0 -4 9 -33 21 -64 l21 -55 107
6 c132 8 224 -6 311 -48 122 -59 213 -182 241 -326 23 -122 0 -334 -60 -547
-11 -38 -19 -70 -18 -71 1 -1 38 1 83 3 l81 5 33 202 c23 135 33 233 33 297
-2 306 -192 556 -465 613 -79 16 -162 23 -218 19z"/>
<path d="M3546 6227 c-3 -13 -28 -49 -56 -81 -36 -42 -50 -65 -50 -88 0 -30
28 -88 42 -88 4 0 22 25 39 55 50 89 56 84 28 -24 -11 -44 -7 -47 26 -25 60
39 71 131 27 215 -31 60 -47 70 -56 36z"/>
<path d="M1472 6003 c3 -148 6 -174 26 -218 28 -60 53 -89 110 -122 35 -21 52
-25 93 -21 58 6 72 15 44 31 -56 31 -73 65 -132 266 -8 29 32 -30 72 -107 37
-70 87 -122 117 -122 20 0 40 75 35 131 -9 98 -91 223 -177 269 -30 16 -160
60 -178 60 -12 0 -13 -27 -10 -167z"/>
<path d="M2518 6053 c-3 -111 1 -137 23 -155 12 -10 31 -18 43 -18 19 0 21 4
18 56 -4 63 9 67 28 9 20 -59 40 -39 40 40 0 51 -30 93 -84 119 -60 28 -66 24
-68 -51z"/>
<path d="M5395 6071 c-71 -44 -101 -102 -81 -160 15 -44 28 -42 48 10 l17 44
2 -45 c1 -25 4 -58 8 -74 l6 -30 37 33 c23 20 39 44 43 64 6 35 -25 169 -40
174 -6 2 -23 -5 -40 -16z"/>
<path d="M6400 6071 c-201 -64 -314 -195 -278 -320 8 -25 18 -46 23 -48 20 -6
76 38 108 84 17 26 44 61 60 77 l27 31 -35 -84 c-38 -92 -64 -127 -110 -147
l-30 -13 37 -15 c51 -22 81 -20 137 8 87 44 122 111 146 281 8 55 17 115 20
133 6 30 4 32 -22 31 -15 0 -53 -8 -83 -18z"/>
<path d="M2965 5830 c-9 -162 -1 -190 63 -231 48 -31 82 -37 82 -16 0 6 -7 35
-15 62 -39 126 -43 145 -36 145 5 0 30 -37 56 -82 l48 -83 13 30 c48 113 -27
237 -180 295 l-24 9 -7 -129z"/>
<path d="M4920 5924 c-115 -65 -162 -158 -129 -253 6 -17 14 -31 17 -31 4 0
27 32 52 70 25 38 46 65 48 61 2 -5 -9 -50 -23 -101 -14 -51 -24 -95 -21 -98
12 -11 83 19 111 48 34 36 41 90 30 235 -8 109 -11 111 -85 69z"/>
<path d="M2294 5894 c4 -27 14 -98 22 -158 15 -115 32 -156 75 -188 34 -26
107 -36 114 -16 3 7 -13 62 -35 121 -45 121 -44 117 -27 117 6 0 37 -43 67
-95 30 -52 60 -93 65 -92 19 6 36 52 32 88 -14 117 -150 244 -283 266 l-37 6
7 -49z"/>
<path d="M5601 5864 c-76 -16 -142 -54 -184 -107 -25 -30 -32 -49 -35 -97 -5
-75 13 -81 56 -17 34 48 117 113 127 97 3 -5 -28 -51 -69 -102 -41 -52 -71
-97 -66 -102 15 -15 98 -19 130 -6 49 20 82 68 144 204 63 140 63 146 -4 145
-19 0 -64 -7 -99 -15z"/>
<path d="M1329 5637 c-37 -13 -76 -31 -88 -39 -22 -16 -22 -16 27 -74 81 -98
116 -124 165 -124 35 0 49 6 71 29 l29 30 -77 23 c-42 13 -74 28 -73 33 2 6
28 11 58 13 85 4 99 9 99 37 0 14 -13 39 -28 56 -38 43 -94 48 -183 16z"/>
<path d="M6478 5641 c-27 -22 -56 -87 -43 -99 4 -4 39 -9 78 -12 39 -3 72 -10
74 -15 2 -6 -32 -21 -74 -34 l-78 -23 33 -29 c41 -37 93 -39 139 -6 32 22 159
165 152 171 -17 13 -160 57 -202 62 -44 5 -56 3 -79 -15z"/>
<path d="M3217 5522 c-41 -123 -61 -223 -51 -255 10 -34 35 -57 61 -57 22 0
23 3 23 83 0 91 9 157 20 157 4 0 13 -52 20 -115 14 -128 23 -139 73 -87 86
89 70 236 -34 326 -77 66 -72 69 -112 -52z"/>
<path d="M4634 5568 c-64 -71 -87 -127 -82 -192 6 -66 25 -105 67 -133 59 -40
61 -36 61 93 0 105 2 115 18 112 14 -3 18 -20 25 -113 5 -60 10 -112 13 -114
2 -3 17 0 32 5 19 7 31 21 41 51 13 37 13 46 -7 105 -32 99 -96 238 -109 238
-6 0 -32 -24 -59 -52z"/>
<path d="M6073 5468 c-6 -40 -9 -74 -8 -75 1 -2 48 -12 106 -24 57 -12 105
-22 106 -23 1 -1 -54 -161 -122 -356 -69 -194 -125 -354 -125 -356 0 -3 108
-44 116 -44 9 0 99 198 138 303 46 122 90 295 107 414 11 83 11 96 -4 128 -10
20 -29 40 -44 46 -28 11 -234 59 -251 59 -5 0 -14 -33 -19 -72z"/>
<path d="M1737 5515 c-90 -17 -130 -36 -153 -69 -14 -22 -14 -36 1 -148 23
-181 25 -190 43 -183 8 3 35 10 61 17 25 6 50 14 54 18 4 4 -2 44 -13 89 -25
95 -21 128 17 137 42 11 400 -3 493 -19 47 -8 143 -32 213 -52 71 -20 131 -35
133 -32 3 3 8 29 11 58 4 46 2 57 -15 72 -22 20 -245 79 -387 103 -135 22
-363 27 -458 9z"/>
<path d="M2907 5512 l-27 -7 34 -70 c18 -38 47 -83 64 -99 27 -25 36 -28 68
-23 21 4 44 13 53 22 13 13 9 18 -47 42 -34 14 -62 31 -62 36 0 9 47 5 98 -9
16 -5 22 -2 22 9 0 18 -44 73 -69 86 -24 13 -102 20 -134 13z"/>
<path d="M4983 5511 c-18 -5 -44 -16 -58 -25 -25 -17 -61 -74 -51 -83 3 -3 25
0 50 6 65 16 72 14 46 -14 -13 -14 -38 -28 -57 -31 -45 -9 -49 -20 -14 -39 41
-21 73 -19 104 5 27 22 105 166 94 176 -10 10 -81 13 -114 5z"/>
<path d="M6744 5371 c-105 -38 -163 -80 -195 -142 -19 -38 -37 -129 -26 -129
3 0 52 27 107 61 56 34 103 59 106 56 6 -6 -110 -124 -151 -154 l-30 -22 58 0
c67 -1 102 14 145 63 40 46 62 121 62 213 0 82 1 81 -76 54z"/>
<path d="M1153 5289 c10 -176 77 -259 209 -259 l53 0 -68 61 c-96 87 -90 103
27 62 21 -7 45 -13 52 -13 38 0 -7 113 -62 155 -38 29 -128 68 -183 80 l-34 7
6 -93z"/>
<path d="M1793 5105 c-101 -18 -194 -50 -293 -101 -326 -168 -411 -409 -309
-885 l12 -53 24 29 c62 76 67 98 65 260 -4 208 20 313 94 409 86 112 288 198
550 232 74 9 76 12 57 72 l-17 52 -55 -1 c-31 0 -88 -7 -128 -14z"/>
<path d="M1015 5060 c3 -5 10 -48 15 -94 5 -46 16 -98 25 -115 15 -30 87 -76
99 -64 17 17 3 72 -30 121 -20 29 -34 56 -30 60 4 4 34 -21 66 -54 33 -34 62
-59 65 -56 3 3 5 22 5 43 0 50 -43 100 -113 132 -63 29 -111 42 -102 27z"/>
<path d="M6870 5039 c-72 -34 -105 -60 -127 -102 -14 -29 -10 -87 7 -87 4 0
29 24 53 52 25 29 48 50 51 47 4 -3 -7 -39 -24 -79 -33 -80 -29 -97 19 -78 61
23 78 53 92 160 5 46 12 91 15 101 8 24 -11 22 -86 -14z"/>
<path d="M4994 5021 c-89 -64 -127 -139 -105 -210 12 -43 52 -81 84 -81 21 0
21 6 1 118 -11 56 12 35 41 -39 l28 -72 18 24 c30 39 33 80 10 163 -12 42 -21
87 -21 101 0 32 -8 31 -56 -4z"/>
<path d="M2970 4951 c0 -21 -7 -71 -16 -110 -9 -40 -13 -86 -10 -105 6 -33 40
-86 55 -86 4 0 18 34 31 75 13 43 29 75 36 75 8 0 12 -6 9 -12 -2 -7 -6 -46
-10 -86 l-6 -73 28 7 c48 11 72 32 83 74 14 52 5 100 -31 153 -29 44 -96 99
-143 117 -25 9 -26 8 -26 -29z"/>
<path d="M2433 4880 c-13 -5 -23 -14 -23 -19 0 -19 105 -180 112 -173 4 4 8
32 10 62 l3 55 21 -55 21 -54 17 31 c21 42 20 75 -4 105 -37 48 -106 68 -157
48z"/>
<path d="M5435 4857 c-43 -16 -66 -31 -82 -56 -33 -48 -30 -65 7 -57 17 3 45
9 63 12 l32 5 -25 -20 c-14 -11 -34 -26 -45 -35 -15 -11 -17 -18 -9 -26 18
-18 104 28 132 70 17 26 22 46 20 80 -4 54 -12 57 -93 27z"/>
<path d="M7030 4782 c-92 -12 -130 -49 -130 -123 0 -27 3 -49 6 -49 4 0 22 14
42 31 46 41 52 23 12 -36 -18 -26 -30 -48 -28 -50 8 -9 72 31 90 55 15 21 46
168 36 174 -1 1 -14 0 -28 -2z"/>
<path d="M924 4720 c10 -83 31 -135 62 -149 51 -23 56 -14 23 44 -17 30 -28
55 -24 55 4 0 27 -16 51 -36 l44 -36 0 36 c0 82 -43 135 -116 144 l-47 5 7
-63z"/>
<path d="M1472 4710 c9 -121 58 -184 139 -178 l44 3 -59 63 c-33 35 -53 61
-45 58 8 -2 26 -7 41 -10 15 -4 44 -20 63 -37 20 -18 38 -29 41 -26 3 3 2 21
-2 42 -13 70 -76 120 -183 144 l-44 9 5 -68z"/>
<path d="M6400 4750 c-66 -22 -114 -71 -124 -124 -4 -21 -5 -40 -2 -43 2 -3
32 14 65 37 34 22 66 38 71 35 6 -4 -11 -32 -40 -65 -27 -32 -50 -60 -50 -64
0 -9 61 4 103 22 49 20 73 65 82 155 l7 67 -28 0 c-16 -1 -54 -9 -84 -20z"/>
<path d="M4754 4723 c2 -10 15 -55 27 -101 25 -98 45 -128 77 -118 l23 8 -32
54 c-43 76 -32 87 20 20 24 -31 47 -53 52 -50 5 3 9 30 9 59 0 46 -5 60 -30
88 -42 49 -158 80 -146 40z"/>
<path d="M3192 4593 c-60 -83 -72 -105 -72 -136 0 -21 27 -57 42 -57 3 0 13
29 23 65 9 36 21 65 26 65 4 0 5 -31 2 -70 -7 -83 -1 -86 57 -32 35 34 40 44
40 83 0 44 -42 149 -60 149 -4 0 -30 -30 -58 -67z"/>
<path d="M831 4494 c-29 -8 -57 -17 -63 -20 -5 -3 6 -24 25 -47 18 -23 53 -70
76 -105 69 -102 131 -126 191 -75 l32 27 -46 11 c-62 16 -112 63 -131 125 -7
21 -3 20 27 -13 43 -45 100 -70 139 -62 34 8 35 16 10 70 -42 92 -133 123
-260 89z"/>
<path d="M1435 4499 c-22 -6 -55 -8 -72 -5 -18 2 -33 0 -33 -5 0 -24 30 -78
55 -97 33 -26 62 -28 113 -6 l37 16 -35 29 -34 29 54 0 c54 0 54 0 35 20 -25
25 -69 32 -120 19z"/>
<path d="M6445 4501 c-12 -5 -27 -16 -34 -25 -12 -14 -9 -16 33 -16 52 0 58
-10 19 -35 -24 -16 -25 -19 -9 -30 27 -20 86 -28 117 -15 32 14 54 42 63 85
l7 30 -48 0 c-27 1 -66 4 -88 8 -22 4 -49 3 -60 -2z"/>
<path d="M6977 4496 c-47 -17 -71 -38 -90 -79 -31 -66 -30 -75 2 -82 39 -8 96
16 145 63 l39 37 -28 -53 c-31 -57 -74 -90 -130 -99 -33 -5 -35 -7 -20 -23 24
-26 71 -43 100 -36 13 3 40 20 59 36 43 38 159 207 147 214 -18 11 -126 36
-156 36 -16 -1 -47 -7 -68 -14z"/>
<path d="M5549 4391 c-156 -65 -216 -150 -189 -269 18 -81 36 -67 88 65 29 72
49 110 57 107 9 -4 5 -33 -16 -117 -16 -62 -29 -113 -29 -114 -1 -11 44 1 86
22 76 38 88 66 92 213 3 98 1 122 -9 121 -8 0 -44 -13 -80 -28z"/>
<path d="M2360 4285 c0 -129 13 -171 69 -218 30 -25 87 -44 98 -33 4 3 -3 50
-15 103 -39 174 -26 176 39 9 l42 -110 30 34 c26 29 29 38 23 76 -8 58 -38
115 -78 149 -28 24 -184 105 -202 105 -3 0 -6 -52 -6 -115z"/>
<path d="M1805 4165 c-27 -13 -93 -54 -145 -91 -52 -36 -102 -69 -110 -74 -21
-13 25 -51 116 -96 155 -76 318 -48 354 61 6 19 9 38 6 43 -2 4 -58 2 -123 -4
-153 -16 -190 -17 -176 -3 5 5 52 17 103 25 100 16 133 29 167 66 l21 23 -42
32 c-59 45 -108 50 -171 18z"/>
<path d="M6010 4167 c-19 -12 -42 -36 -52 -53 l-18 -32 70 -26 c55 -20 90 -26
151 -26 43 0 79 -4 79 -8 0 -10 -112 -32 -163 -32 -19 0 -58 5 -86 12 -28 6
-54 9 -57 5 -12 -11 18 -66 51 -96 72 -63 159 -65 281 -7 74 35 154 98 154
122 0 8 -35 31 -77 53 -43 21 -105 55 -137 75 -74 45 -143 49 -196 13z"/>
<path d="M835 4132 c-50 -20 -103 -41 -118 -47 l-27 -10 84 -87 c98 -103 143
-127 234 -128 102 0 152 31 152 96 0 23 -3 25 -22 20 -63 -18 -129 -18 -175 0
l-48 18 68 7 c72 8 167 37 167 52 0 4 -12 24 -26 43 -66 86 -143 95 -289 36z"/>
<path d="M2746 4158 c-9 -26 -46 -209 -46 -223 0 -8 8 -15 18 -15 12 0 26 17
42 51 44 92 51 71 16 -43 -14 -43 -13 -48 0 -48 9 0 31 15 50 34 39 39 44 82
19 142 -27 64 -90 130 -99 102z"/>
<path d="M5238 4153 c-55 -62 -64 -152 -22 -203 31 -37 44 -27 44 33 0 20 4
37 9 37 10 0 21 -35 21 -70 0 -22 1 -23 16 -8 28 28 30 100 3 152 -12 25 -30
53 -39 61 -15 14 -18 13 -32 -2z"/>
<path d="M6925 4155 c-39 -21 -66 -47 -88 -85 l-18 -30 38 -16 c38 -16 151
-16 198 1 14 5 12 -1 -10 -19 -40 -34 -111 -50 -191 -41 l-64 7 22 -37 c42
-72 130 -101 223 -71 40 12 76 38 159 112 59 53 104 100 99 104 -4 4 -51 24
-103 45 -113 45 -216 57 -265 30z"/>
<path d="M2055 3902 c-16 -10 -43 -37 -59 -60 -30 -44 -66 -72 -91 -72 -28 0
-15 -18 25 -34 50 -20 129 -21 174 -2 60 25 94 93 66 136 -10 15 -15 12 -87
-54 -49 -45 -51 -24 -4 38 22 30 41 58 41 61 0 11 -37 4 -65 -13z"/>
<path d="M5859 3854 c55 -60 60 -96 7 -47 -52 49 -87 67 -97 52 -23 -37 -8
-82 39 -111 53 -33 140 -30 212 7 l55 29 -37 6 c-26 5 -55 24 -98 63 -50 47
-67 57 -97 57 l-35 0 51 -56z"/>
<path d="M6955 3796 c-77 -36 -76 -41 24 -67 50 -13 91 -28 91 -33 0 -5 -41
-6 -100 -2 -55 4 -100 3 -100 -1 0 -42 97 -123 170 -143 39 -11 143 -13 177
-4 l23 6 -20 27 c-10 15 -34 61 -53 102 -19 41 -46 85 -60 98 -32 29 -108 38
-152 17z"/>
<path d="M856 3778 c-20 -18 -116 -213 -116 -236 0 -3 46 -3 103 0 111 6 165
23 210 66 25 24 57 72 57 86 0 3 -45 2 -100 -1 -130 -8 -132 8 -5 37 52 12 95
23 95 25 0 2 -28 13 -62 24 -84 28 -149 28 -182 -1z"/>
<path d="M1010 3523 c-30 -11 -54 -40 -116 -146 -35 -59 -64 -109 -64 -112 0
-10 144 -5 182 7 49 14 95 61 110 110 6 21 9 40 7 42 -2 3 -32 -1 -67 -8 -34
-8 -62 -10 -62 -5 0 4 28 25 62 45 l62 38 -39 18 c-42 18 -51 20 -75 11z"/>
<path d="M6894 3520 c-38 -15 -34 -25 27 -64 32 -21 59 -42 59 -47 0 -4 -32 3
-71 16 l-71 25 6 -28 c20 -83 106 -148 211 -157 95 -9 97 -3 25 116 -86 142
-118 167 -186 139z"/>
<path d="M1045 3213 c-75 -39 -105 -88 -105 -170 0 -55 33 -151 57 -166 14 -9
121 90 148 137 27 47 32 102 14 155 -13 36 -11 36 -49 16 -36 -19 -75 -69 -88
-115 l-10 -35 -1 46 c-1 38 6 57 33 98 19 28 34 51 33 51 -1 -1 -15 -8 -32
-17z"/>
<path d="M6910 3215 c0 -3 16 -38 36 -78 l36 -72 -76 75 c-84 82 -89 82 -101
4 -7 -51 0 -87 31 -140 29 -52 118 -128 140 -120 8 3 23 25 34 48 44 102 34
187 -30 250 -32 33 -70 50 -70 33z"/>
<path d="M1165 2911 c-16 -10 -40 -29 -52 -42 -23 -26 -93 -138 -93 -150 0
-13 112 -31 167 -27 32 3 65 13 81 24 31 23 72 97 72 131 l0 23 -66 -25 c-103
-39 -112 -31 -32 30 49 38 50 40 27 46 -43 12 -73 9 -104 -10z"/>
<path d="M6696 2922 c-3 -6 17 -29 45 -53 29 -24 47 -45 42 -46 -6 -2 -41 7
-79 21 -37 14 -70 23 -72 21 -2 -2 3 -26 12 -53 27 -81 85 -122 172 -122 52 0
132 18 140 32 11 17 -76 148 -117 175 -42 27 -131 43 -143 25z"/>
<path d="M1323 2700 c-39 -16 -52 -52 -68 -185 -8 -72 -15 -142 -15 -158 0
-27 1 -28 38 -21 70 13 159 44 187 66 34 27 65 92 65 138 -1 19 -8 53 -18 74
l-18 40 -54 -85 c-63 -97 -71 -90 -41 36 12 48 19 91 15 96 -7 11 -62 11 -91
-1z"/>
<path d="M6573 2703 c-28 -5 -28 -8 2 -113 13 -46 21 -88 18 -93 -3 -5 -28 25
-56 67 -27 42 -53 76 -58 76 -14 0 -41 -101 -35 -132 16 -82 90 -137 217 -164
39 -8 73 -13 74 -12 5 6 -26 263 -36 300 -16 61 -57 84 -126 71z"/>
<path d="M1607 2532 c-41 -42 -36 -81 20 -174 l47 -78 24 23 c31 29 62 89 62
122 0 36 -23 86 -50 110 l-23 20 5 -52 c3 -29 2 -53 -2 -53 -4 0 -18 25 -31
55 l-24 56 -28 -29z"/>
<path d="M6309 2497 l-24 -62 -5 55 -5 55 -29 -43 c-41 -60 -41 -118 1 -170
45 -55 56 -53 102 26 55 91 55 163 2 191 -16 9 -21 3 -42 -52z"/>
<path d="M1890 2501 c0 -11 -3 -27 -7 -36 -5 -14 -9 -11 -24 16 l-17 34 -8
-30 c-6 -23 -1 -40 19 -77 15 -27 27 -55 27 -63 0 -13 4 -14 20 -5 52 28 69
106 34 154 -23 30 -44 34 -44 7z"/>
<path d="M6031 2484 c-12 -15 -21 -39 -21 -55 0 -26 42 -89 60 -89 8 0 70 125
70 141 0 18 -30 8 -41 -13 -12 -23 -13 -22 -21 10 -10 39 -20 40 -47 6z"/>
</g>
</svg>
