<svg width="438" height="424" viewBox="0 0 438 424" fill="none" xmlns="http://www.w3.org/2000/svg">
<path fill-rule="evenodd" clip-rule="evenodd" d="M69.0826 276.356C60.8666 269.509 52.8919 262.864 44.9519 256.247C48.2986 269.064 54.4093 280.216 66.0519 288.09C67.2533 283.437 68.2653 279.514 69.0826 276.356ZM390.893 256.148C382.817 262.856 374.811 269.509 366.929 276.057C367.903 279.836 368.9 283.733 370.12 288.476C381.805 280.082 387.728 268.885 390.893 256.148ZM230.851 165.593C230.363 152.651 227.435 143.669 222.341 135.41C219.441 130.71 215.983 130.626 213.501 135.684C210.556 141.684 207.983 148.005 206.32 154.462C204.029 163.367 205.051 172.164 210.636 179.893C215.368 186.437 221.576 186.621 225.617 179.615C228.556 174.515 229.828 168.452 230.851 165.593ZM50.3466 217.561C58.5692 228.869 68.7066 236.572 81.8586 239.979C94.0466 243.137 105.721 240.684 117.081 236.416C122.837 234.252 123.121 231.26 118.1 227.617C92.6986 209.169 78.3919 182.96 66.8039 154.815C66.5666 154.236 66.5653 153.561 66.4653 152.992C73.8519 148.872 74.3132 148.981 77.6719 156.38C85.6706 173.995 94.6799 191.153 108.176 205.124C123.96 221.462 142.827 232.164 166.613 231.012C173.681 230.672 175.959 226.94 173.111 220.418C168.568 210.017 159.607 203.575 151.208 196.768C137.065 185.299 120.828 180.148 102.536 181.336C93.2439 181.94 93.004 181.506 89.2226 171.552C93.1986 170.726 97.0892 169.921 101.447 169.015C93.1132 154.807 87.4333 139.864 84.7319 123.838C93.2933 122.158 94.1079 122.702 96.3399 130.937C99.4533 142.429 103.829 153.271 110.701 163.197C116.048 170.916 123.977 170.003 131.436 170.971C132.011 171.044 133.724 168.383 133.537 167.213C132.86 163.012 131.807 158.833 130.435 154.801C129.964 153.419 128.321 151.905 126.901 151.462C121.265 149.705 115.58 147.793 109.765 147C103.688 146.169 102.248 142.325 100.968 136.509C110.565 138.555 119.489 140.455 128.813 142.44C128.844 119.137 130.965 96.0332 137.781 72.8478C141.028 74.2385 143.768 75.4158 146.143 76.4345C144.145 88.0598 141.501 98.9758 140.544 110.044C138.924 128.768 138.412 147.591 145.651 165.569C152.908 183.593 164.948 197.132 183.067 204.793C185 205.612 187.164 206.252 189.235 206.296C192.884 206.377 194.789 204.771 194.725 200.549C194.328 175.101 182.375 156.781 160.627 144.364C156.913 142.244 153.175 140.158 149.349 138.252C142.001 134.593 141.801 134.284 143.695 125.061C146.567 126.314 149.384 127.421 152.091 128.744C158.144 131.716 164.087 134.908 170.177 137.796C176.656 140.861 180.125 139.489 181.307 132.557C185.093 110.278 181.64 94.4652 162.209 81.7332C151.772 74.8945 140.573 69.1558 127.86 67.4812C107.737 64.8358 91.8733 78.4211 91.4039 98.6838C91.3373 101.621 91.3959 104.561 91.3959 107.954C88.1573 107.684 85.2893 107.45 82.5186 107.224C77.0959 86.0851 92.6706 63.0665 114.808 58.8118C132.932 55.3252 148.415 61.9625 163.335 70.9972C165.144 72.0958 166.839 73.3851 168.172 74.3012C171.696 65.8385 174.808 57.2838 178.777 49.1478C182.164 42.2052 183.081 42.2305 190.087 44.1732C187.045 52.0198 183.691 59.8305 181.045 67.8772C179.839 71.5438 179.541 75.6972 179.769 79.5745C179.932 82.3225 181.063 85.4891 182.825 87.5665C187.108 92.6211 190.968 91.8452 193.448 85.7132C198.276 73.7812 203.22 61.8358 211.899 52.1531C216.224 47.3332 221.428 43.0358 226.916 39.5852C234.143 35.0358 234.472 35.5051 239.697 42.9211C227.489 48.1718 218.049 56.5985 211.624 68.1318C203.621 82.4998 198.095 97.9132 196.445 114.216C195.247 126.072 196.183 138.15 196.244 150.129C196.253 151.536 196.748 152.945 197.449 154.413C198.779 141.285 204.011 129.948 212.131 119.833C217.236 113.476 218.692 113.455 223.633 119.773C231.677 130.064 237.204 141.413 239.003 154.768C239.521 151.471 240.275 148.192 240.525 144.874C242.644 117.044 237.232 90.8558 223.135 66.6211C219.223 59.8945 219.372 59.2185 227.041 54.5025C232.012 64.3772 236.864 74.2265 241.936 83.9652C243.405 86.7905 243.773 91.2518 248.687 90.4372C252.123 89.8665 256.484 84.4598 256.343 80.4505C256.168 75.5571 255.88 70.5252 254.595 65.8452C250.504 50.9478 242.379 38.5545 229.788 29.4105C220.781 22.8692 215.903 22.6505 207.023 29.4371C202.251 33.0851 197.963 33.7705 192.303 30.9758C198.884 23.7905 205.711 17.2598 215.248 14.6945C221.6 12.9838 226.956 16.3039 231.612 19.9239C247.897 32.5798 259.523 48.6172 265.399 68.5665C265.951 70.4505 266.337 72.3798 266.899 74.6865C271.999 71.5851 276.953 68.5665 282.451 65.2238C283.627 68.7985 284.577 71.6838 285.443 74.3118C279.56 78.1692 273.819 81.3932 268.696 85.4052C258.636 93.2785 253.565 103.897 253.539 116.692C253.529 122.101 253.779 127.569 254.608 132.905C255.535 138.869 259.024 140.702 264.616 138.325C269.897 136.074 274.925 133.228 280.072 130.658C298.583 121.416 318.136 115.328 338.405 111.413C339.005 111.296 339.645 111.4 340.268 111.4C340.228 119.328 339.056 120.784 332.373 122.356C311.119 127.358 290.749 134.73 272.145 146.29C252.728 158.358 242.253 175.905 241.508 198.96C241.307 205.153 244.136 207.867 250.023 205.673C255.924 203.476 261.675 200.32 266.771 196.601C284.463 183.681 293.46 165.583 295.471 144.148C295.996 138.564 298.349 136.356 302.94 135.022C304.025 134.708 305.089 134.314 306.653 133.796C306.972 136.577 307.26 139.085 307.621 142.249C325.305 138.315 342.869 133.951 361.517 137.872C360.899 139.992 360.781 141.934 359.821 143.273C358.923 144.525 357.065 145.992 355.74 145.893C340.268 144.724 325.204 146.845 310.305 150.836C307.471 151.596 305.768 152.885 305.204 155.89C304.509 159.596 303.553 163.262 302.532 166.897C301.763 169.645 302.32 171.117 305.455 170.79C309.713 170.342 314.003 170.072 318.212 169.343C319.667 169.093 321.261 167.981 322.213 166.796C325.085 163.213 327.899 159.539 330.329 155.645C334.653 148.711 334.527 148.634 344.108 149.109C340.932 155.942 337.88 162.507 334.748 169.239C353.609 172.127 370.685 178.358 384.796 191.288C392.211 198.08 392.368 199.367 386.001 208.913C385.507 207.981 385.243 207.124 384.7 206.517C357.903 176.525 316.313 172.653 284.575 197.385C278.493 202.124 273.035 207.661 267.299 212.843C266.691 213.393 265.851 213.935 265.636 214.637C264.337 218.9 261.511 223.615 262.412 227.411C263.556 232.208 269.444 231.189 273.621 231.057C292.744 230.44 309.076 223 322.556 209.679C328.716 203.588 334.411 196.883 339.404 189.807C342.229 185.807 344.715 185.2 348.643 186.994C349.824 187.536 351.04 187.989 353.303 188.918C347.625 196.273 342.623 203.567 336.773 210.101C331.448 216.052 325.196 221.176 319.351 226.664C318.628 227.339 317.843 227.952 317.172 228.673C313.759 232.34 313.875 234.096 318.415 235.957C338.415 244.158 357.864 244.507 375.029 228.708C389.167 215.695 397.112 199.552 396.416 179.661C396.011 168.049 390.255 160.221 380.928 154.345C378.849 153.036 376.653 151.908 374.047 150.432C374.805 147.913 375.587 145.328 376.365 142.749C396.536 148.224 408.025 166.457 405.424 188.612C401.816 219.343 384.957 239.814 356.621 251.325C349.987 254.022 349.816 254.708 354.549 260.022C360.481 266.684 361.012 266.976 369.041 262.957C382.284 256.33 391.415 246.721 392.993 230.971C393.432 226.596 396.864 222.523 398.923 218.309C399.359 218.351 399.795 218.393 400.231 218.435C400.551 220.848 400.896 223.263 401.185 225.679C402.743 238.617 401.348 251.314 397.861 263.798C393.307 280.114 383.285 292.336 369.265 301.484C368.032 302.288 366.708 302.994 365.356 303.574C358.131 306.708 355.048 304.71 356.496 297.038C358.313 287.388 354.443 279.952 348.628 273.14C326.011 246.637 290.804 237.224 258.168 248.968C250.257 251.814 245.508 258.044 243.712 265.945C239.623 283.908 243.397 300.281 255.467 314.358C267.68 328.604 283.959 335.236 302.061 337.609C315.592 339.382 329.255 340.161 342.82 341.713C348.596 342.374 353.569 345.022 356.159 350.666C359.453 357.856 364.863 361.525 372.839 361.481C374.436 361.47 376.037 362.112 378.512 362.642C372.621 366.388 367.076 366.848 361.623 364.434C357.617 362.661 353.789 360.216 350.351 357.481C343.84 352.298 336.689 349.954 328.369 350.39C321.695 350.738 314.988 350.46 306.98 350.46C308.488 352.954 309.165 354.497 310.212 355.724C313.847 359.981 317.895 363.913 321.269 368.361C329.485 379.192 329.936 391.228 325.177 404.09C324.628 402.612 323.751 401.164 323.585 399.64C322.547 390.057 320.197 381.252 311.919 375C309.497 373.169 307.695 370.377 305.971 367.785C299.948 358.738 291.556 353.057 281.307 349.88C274.405 347.736 267.531 345.505 260.599 343.468C258.583 342.874 256.405 342.56 254.307 342.574C249.772 342.601 248.025 344.853 249.007 349.268C250.485 355.95 254.552 360.833 260.361 364.126C268.691 368.856 277.733 371.246 287.328 370.44C292.179 370.033 296.049 371.176 299.277 374.788C303.445 379.457 307.859 383.921 311.829 388.754C314.379 391.858 316.579 395.4 314.591 400.877C311.907 397.713 309.659 395.216 307.583 392.582C299.529 382.361 288.733 379.462 276.337 380.73C273.717 381.002 271.061 381.025 268.473 381.473C263.407 382.345 260.975 385.202 262.28 390.172C263.377 394.336 265.264 398.686 268.008 401.942C273.805 408.828 280.389 415.052 287.039 421.945C285.611 421.945 284.132 422.238 282.819 421.9C263.064 416.806 247.204 397.91 245.671 377.481C245.068 369.478 241.763 362.85 235.897 357.664C234.204 356.166 230.911 355.052 229 355.694C227.565 356.176 226.059 360.022 226.521 361.893C227.888 367.385 230.24 372.629 232.165 377.986C233.639 382.09 235.924 386.132 236.324 390.348C237.435 402.085 242.127 411.793 250.601 419.833C251.464 420.653 252.087 421.724 252.38 423.26C245.991 421.561 239.403 419.65 235.699 414.153C231.365 407.718 228.236 400.445 224.891 393.39C223.22 389.864 222.527 385.874 220.841 382.358C219.4 379.35 216.648 379.278 215.224 382.238C213.404 386.025 212.105 390.142 211.128 394.246C207.743 408.473 199.495 418.304 185.669 423.314C185.231 423.47 184.716 423.434 184.236 423.437C184.105 423.437 183.973 423.254 183.213 422.684C184.196 421.533 185.056 420.298 186.132 419.298C195.047 411.028 199.237 400.73 200.228 388.7C200.531 384.994 202.299 381.153 204.259 377.893C207.567 372.397 210.177 366.809 209.603 360.293C209.121 354.838 205.759 353.4 201.563 356.825C195.481 361.79 191.565 367.866 191.099 376.129C189.921 396.902 173.277 416.845 153.248 421.937C151.948 422.27 150.549 422.213 148.753 421.241C151.255 419.009 153.699 416.713 156.265 414.56C162.913 408.986 168.447 402.561 172.187 394.658C176.249 386.072 173.82 381.778 164.488 381.192C160.876 380.965 157.257 380.338 153.663 380.473C143.289 380.858 134.456 384.512 128.116 393.205C126.305 395.686 124.069 397.856 122.028 400.172C121.456 399.945 120.885 399.716 120.313 399.486C121.116 396.572 121.132 393.025 122.869 390.858C128.001 384.465 133.604 378.397 139.503 372.7C141.055 371.202 144.349 371.03 146.835 371.066C156.688 371.197 166.26 370.345 174.849 364.9C180.428 361.366 184.839 356.842 186.775 350.33C188.355 345.012 186.192 341.52 180.935 342.757C170.428 345.236 160.141 348.713 149.871 352.104C142.653 354.486 137.041 359.166 132.365 365.226C128.765 369.89 124.543 374.08 120.519 378.405C115.809 383.468 113.96 389.658 113.08 396.309C112.735 398.926 112.084 401.502 111.373 405.104C105.683 396.59 107.183 378.984 113.704 370.497C117.511 365.541 121.852 361 125.831 356.172C126.965 354.793 127.668 353.061 129.124 350.517C112.011 351.052 95.836 347.358 82.056 360.025C73.8573 367.56 65.5759 367.544 57.9453 362.476C60.7053 362.022 62.8533 361.512 65.0253 361.345C71.2333 360.874 76.0653 358.416 78.8186 352.536C81.9453 345.861 87.2253 342.189 94.5826 341.494C107.853 340.244 121.177 339.39 134.375 337.609C155.671 334.736 173.591 325.582 185.891 307.29C193.084 296.596 195.356 284.517 193.996 271.918C192.687 259.806 185.643 251.666 174.221 247.728C153.529 240.59 133.303 242.629 113.927 252.293C102.773 257.858 93.1172 265.618 85.6079 275.7C80.7639 282.205 77.8706 289.257 79.5733 297.79C80.8746 304.32 77.4066 306.942 71.3706 303.992C59.9866 298.432 50.9546 290.017 44.8319 278.937C33.2839 258.041 31.2186 235.601 37.2866 212.921C42.156 194.718 56.388 184.601 73.148 177.069C75.1026 180.557 76.7639 183.523 77.8746 185.505C70.6839 190.619 63.4999 194.954 57.2319 200.358C46.5599 209.561 42.9719 222.21 44.2626 235.635C45.5973 249.517 55.9333 257.221 67.3599 263.166C74.7786 267.025 80.9026 264.572 84.0666 256.757C84.4946 255.705 82.8639 252.987 81.5132 252.213C77.6813 250.025 73.2973 248.791 69.5066 246.549C64.1439 243.372 58.8719 239.94 54.0066 236.057C46.7853 230.293 46.2986 227.054 50.3466 217.561Z" fill="url(#paint0_linear)"/>
<path fill-rule="evenodd" clip-rule="evenodd" d="M300.315 67.9654C299.455 65.6721 298.479 63.0694 297.312 59.9547C308.451 56.8147 319.356 57.1267 330.011 61.2601C346.188 67.5307 356.224 85.9841 354.085 105.817C353.121 114.781 351.26 123.645 349.759 132.845C345.833 133.088 342.476 133.293 338.692 133.528C342.449 121.34 345.328 109.429 344.635 96.9054C343.841 82.5281 334.12 70.4708 320.015 68.1374C313.807 67.1148 307.292 67.9654 300.315 67.9654Z" fill="url(#paint1_linear)"/>
<path fill-rule="evenodd" clip-rule="evenodd" d="M250.1 33.5748C267.384 31.3535 281.585 38.3801 290.256 53.2708C298.177 66.8775 301.323 81.9948 303.929 97.2548C304.704 101.788 305.101 106.391 305.857 110.929C306.476 114.645 305.793 117.279 301.561 118.093C299.833 118.427 298.213 119.307 297.051 119.744C295.06 107.189 293.652 94.6481 290.921 82.3975C289.084 74.1481 285.671 66.1895 282.435 58.3201C278.42 48.5548 270.804 43.1588 260.344 41.5668C254.273 40.6428 254.3 40.4708 250.1 33.5748Z" fill="url(#paint2_linear)"/>
<path fill-rule="evenodd" clip-rule="evenodd" d="M85.0959 137.416C85.9533 140.224 86.7093 142.697 87.4106 145C80.6159 146.257 73.9346 147.007 67.5306 148.773C46.3146 154.619 38.5333 165.82 39.8306 187.845C40.4813 198.897 40.4813 198.897 33.9546 207.656C32.7933 201.345 30.9813 195.077 30.5933 188.724C29.2906 167.336 34.4466 154.137 56.004 143.937C65.0253 139.667 74.6279 137.681 85.0959 137.416Z" fill="url(#paint3_linear)"/>
<path fill-rule="evenodd" clip-rule="evenodd" d="M70.3987 135.684C67.5307 136.468 64.7467 137.231 60.9374 138.273C60.032 131.741 59.0174 125.664 58.416 119.547C58.0667 116.02 59.9214 113.885 63.532 112.82C74.7334 109.509 86.0654 110.284 97.3267 111.741C104.459 112.664 111.483 114.588 118.488 116.317C127.168 118.463 127.14 118.577 125.528 127.957C117.635 125.845 109.851 122.952 101.817 121.82C92.2841 120.479 82.5373 120.359 72.8773 120.284C67.644 120.241 66.8841 121.796 68.0147 126.779C68.3441 128.219 68.752 129.637 69.136 131.064C69.5147 132.487 69.9094 133.9 70.3987 135.684Z" fill="url(#paint4_linear)"/>
<path fill-rule="evenodd" clip-rule="evenodd" d="M355.373 119.731C355.856 116.588 356.301 113.716 356.931 109.645C363.109 111.072 369.209 112.033 374.92 114.08C376.535 114.659 378.104 118.512 377.856 120.656C375.755 139.091 369.804 156.336 361.068 172.9C357.768 171.653 354.903 170.572 353.201 169.929C358.669 154.405 364.027 139.184 369.84 122.679C364.269 121.544 360.129 120.7 355.373 119.731Z" fill="url(#paint5_linear)"/>
<path fill-rule="evenodd" clip-rule="evenodd" d="M151.427 61.4373C148.764 60.2106 146.408 59.1212 144.083 58.0519C149.46 32.4839 191.204 24.2106 215.44 43.9319C213.312 45.7186 211.197 47.4946 208.708 49.5852C199.647 43.2106 188.869 40.1866 176.936 41.3746C164.199 42.6453 156.735 50.6093 151.427 61.4373Z" fill="url(#paint6_linear)"/>
<path fill-rule="evenodd" clip-rule="evenodd" d="M73.9919 98.6267C65.6519 96.536 66.5306 87.312 60.3532 82.2333C64.3959 89.4293 62.3906 98.3147 71.6146 101.779C66.1506 104.791 62.0106 103.203 58.2786 100.236C53.7292 96.6213 51.9092 91.56 51.7986 85.8947C51.6826 80.0307 51.7732 74.164 51.7732 67.8507C60.2146 70.0667 68.9839 72.4507 73.4759 81.7027C76.0959 87.1067 77.6919 92.7027 73.9919 98.6267Z" fill="url(#paint7_linear)"/>
<path fill-rule="evenodd" clip-rule="evenodd" d="M362.264 102.336C370.437 100.255 370.605 92.7681 373.979 86.3455C368.405 90.2361 367.788 98.2161 360.644 99.1348C354.308 87.7028 365.335 76.1094 385.081 73.0601C384.437 77.5414 383.741 82.1015 383.132 86.6721C382.233 93.4188 380.32 99.5774 373.804 103.104C369.861 105.239 366.732 105.096 362.264 102.336Z" fill="url(#paint8_linear)"/>
<path fill-rule="evenodd" clip-rule="evenodd" d="M367.296 209.721C363.881 209.721 360.385 210.172 357.068 209.596C353.785 209.025 350.679 207.421 347.508 206.279C349.728 199.883 355.865 197.343 362.157 199.84C364.253 200.672 366.039 202.257 368.047 203.356C371.921 205.476 375.851 207.5 379.721 209.544C375.992 215.919 363.825 222.195 356.391 220.728C350.713 219.609 347.159 216.003 346.567 210.689C350.009 211.317 353.431 212.448 356.849 212.432C360.397 212.416 363.937 211.291 367.48 210.648C367.419 210.34 367.359 210.031 367.296 209.721Z" fill="url(#paint9_linear)"/>
<path fill-rule="evenodd" clip-rule="evenodd" d="M55.984 212.307C60.2427 209.487 64.5093 206.905 68.5013 203.948C72.8613 200.716 77.192 197.7 82.8573 200.325C84.6693 201.169 86.1293 202.768 87.912 204.145C82.724 211.531 74.6133 208.957 68.3333 211.367C68.3893 211.785 68.4466 212.208 68.5053 212.629C75.0346 211.965 81.5653 211.304 88.256 210.627C89.3733 215.405 84.9146 220.465 77.772 221.003C70.176 221.572 61.4267 217.924 55.984 212.307Z" fill="url(#paint10_linear)"/>
<path fill-rule="evenodd" clip-rule="evenodd" d="M422.373 209.509C416.607 211.684 410.956 212.241 405.388 208.995C410.12 200.676 415.615 198.432 424.344 201.369C428.355 202.719 432.245 204.416 437.644 206.523C433.157 210.659 429.307 214.621 425.021 218.036C420.152 221.919 414.38 222.612 408.787 219.984C406.513 218.916 405.011 216.208 403.591 213.627C410.647 214.231 417.251 215.569 422.373 209.509Z" fill="url(#paint11_linear)"/>
<path fill-rule="evenodd" clip-rule="evenodd" d="M0 206.681C3.89867 205.176 7.93737 203.851 11.776 202.091C20.1214 198.265 26.0454 200.121 30.86 208.564C28.308 209.468 25.8427 210.664 23.244 211.169C20.6027 211.684 17.8307 211.52 14.7747 211.672C20.244 215.88 25.844 214.216 31.404 212.828C31.7027 217.247 29.6214 220.02 24.996 220.952C18.3254 222.291 12.6654 220.228 8.02539 215.315C5.32806 212.46 2.67467 209.561 0 206.681Z" fill="url(#paint12_linear)"/>
<path fill-rule="evenodd" clip-rule="evenodd" d="M172.959 17.5028C173.513 21.5281 174.193 25.0521 174.432 28.6068C174.648 31.7934 172.928 32.5121 169.987 31.5148C166.137 30.2134 164.485 27.4108 164.407 23.6641C164.267 16.9708 164.369 10.2735 164.369 2.70012C169.463 5.37479 173.904 7.21345 177.793 9.86145C185.499 15.1015 185.924 23.6614 178.549 30.2681C178.78 24.7761 177.677 20.2081 172.959 17.5028Z" fill="url(#paint13_linear)"/>
<path fill-rule="evenodd" clip-rule="evenodd" d="M115.117 95.1427C117.028 100.263 118.94 105.385 120.841 110.489C115.176 112.279 110.115 109.509 108.445 103.127C107.911 101.088 107.999 98.8906 107.679 96.784C106.972 92.1266 106.187 87.4813 105.477 83.0933C120.217 84.1427 132.233 100.252 124.445 107.727C121.764 103.271 119.099 98.8426 116.439 94.4186C115.997 94.6613 115.557 94.9 115.117 95.1427Z" fill="url(#paint14_linear)"/>
<path fill-rule="evenodd" clip-rule="evenodd" d="M271.289 2.65599C271.548 7.94532 272.039 11.8613 271.845 15.7467C271.644 19.7707 271.455 24.0493 269.927 27.6507C269.148 29.4947 265.451 30.0987 263.071 31.2627C262.607 29.1587 261.644 27.0174 261.803 24.9627C261.997 22.424 263.124 19.96 264.011 16.8973C259.004 19.8013 257.484 24.088 257.445 29.2547C251.593 25.064 250.548 17.8333 255.94 12.812C260.251 8.79865 265.851 6.16666 271.289 2.65599Z" fill="url(#paint15_linear)"/>
<path fill-rule="evenodd" clip-rule="evenodd" d="M310.1 105.231C308.4 93.9682 320.52 86.0642 335.839 87.7655C333.408 93.1722 330.995 98.8388 328.339 104.391C325.065 111.233 318.54 113.252 312.907 109.599C316.208 105.471 319.529 101.318 322.848 97.1642C322.576 96.8068 322.304 96.4508 322.029 96.0962C320.131 97.4975 318.023 98.6975 316.395 100.361C314.593 102.2 313.232 104.468 311.68 106.552C311.153 106.112 310.627 105.672 310.1 105.231Z" fill="url(#paint16_linear)"/>
<path fill-rule="evenodd" clip-rule="evenodd" d="M46.2453 311.588C48.492 308.064 50.7373 304.541 53.024 300.957C55.0893 303.989 56.4999 307.799 54.9613 312.241C52.9959 317.908 48.3466 320.369 36.0986 322.315C36.7426 316.143 37.112 309.952 38.1013 303.861C39.0466 298.041 41.5439 296.531 48.5639 297.471C47.4666 301.992 46.396 306.397 45.3253 310.804C45.632 311.064 45.9386 311.328 46.2453 311.588Z" fill="url(#paint17_linear)"/>
<path fill-rule="evenodd" clip-rule="evenodd" d="M383.16 301.194C385.399 304.58 387.68 308.028 389.96 311.479C390.291 311.247 390.62 311.012 390.951 310.779C389.78 306.52 388.609 302.263 387.451 298.041C393.719 296.104 396.74 297.388 397.753 302.744C398.957 309.132 399.356 315.673 400.1 322.132C382.953 320.533 376.441 312.265 383.16 301.194Z" fill="url(#paint18_linear)"/>
<path fill-rule="evenodd" clip-rule="evenodd" d="M172.877 131.044C172.309 125.963 171.743 120.883 171.175 115.801C170.756 115.771 170.337 115.736 169.916 115.708C169.659 120.952 169.4 126.2 169.132 131.689C166.288 132.115 163.808 130.653 163.664 126.517C163.548 123.195 164.419 119.757 165.327 116.503C166.5 112.301 168.147 108.233 169.736 103.687C174.713 107.4 180.032 111.077 180.613 118.507C181.029 123.839 179.149 128.039 174.979 131.14C174.28 131.109 173.577 131.077 172.877 131.044Z" fill="url(#paint19_linear)"/>
<path fill-rule="evenodd" clip-rule="evenodd" d="M315.608 207.984C316.907 202.749 318.165 197.667 319.423 192.583C318.892 192.383 318.364 192.181 317.835 191.979C315.772 197.072 313.713 202.167 311.652 207.26C311.093 207.317 310.536 207.377 309.977 207.432C309.408 204.673 307.951 201.749 308.423 199.184C310.385 188.572 319.711 186.645 327.456 183.58C327.456 187.739 327.605 191.869 327.427 195.992C327.099 203.429 323.692 206.719 315.608 207.984Z" fill="url(#paint20_linear)"/>
<path fill-rule="evenodd" clip-rule="evenodd" d="M125.789 209.203C123.724 203.836 121.797 198.825 119.871 193.815C119.467 193.951 119.063 194.088 118.66 194.221C119.831 199.536 121.001 204.848 122.149 210.055C115.347 209.617 110.239 204.208 110.332 197.2C110.383 193.325 110.341 189.451 110.341 185.012C117.859 188.38 125.968 190.228 128.867 199.085C130.047 202.687 130.364 206.197 125.789 209.203Z" fill="url(#paint21_linear)"/>
<path fill-rule="evenodd" clip-rule="evenodd" d="M400.98 130.219C395.165 133.684 390.669 136.364 385.469 139.463C386.105 127.971 390.811 123.621 405.621 119.429C407.189 136.211 399.776 146.14 388.092 142.487C390.428 140.801 392.827 139.4 394.805 137.552C396.787 135.697 398.345 133.395 400.98 130.219Z" fill="url(#paint22_linear)"/>
<path fill-rule="evenodd" clip-rule="evenodd" d="M265.3 103.992C267.136 108.057 269.005 111.825 270.539 115.727C271.659 118.583 273.008 121.601 273.055 124.564C273.115 128.227 271.245 131.281 267.475 131.353C267.048 126.124 266.616 120.817 266.183 115.507C265.457 115.539 264.733 115.564 264.009 115.593C264.009 120.661 264.009 125.731 264.009 131.167C258.689 130.307 256.58 127.169 255.764 123.427C253.816 114.473 259.313 108.965 265.3 103.992Z" fill="url(#paint23_linear)"/>
<path fill-rule="evenodd" clip-rule="evenodd" d="M122.349 28.828C136.997 30.4947 143.787 36.5987 143.008 48.4654C138.991 45.6787 135.528 43.2761 132.067 40.8721C131.793 41.0067 131.521 41.1427 131.248 41.2814C133.843 44.7001 136.437 48.1214 138.872 51.3361C133.561 53.3614 128.349 50.9681 125.985 44.4707C125.093 42.0174 124.7 39.3827 124.111 36.8227C123.528 34.2787 122.987 31.7267 122.349 28.828Z" fill="url(#paint24_linear)"/>
<path fill-rule="evenodd" clip-rule="evenodd" d="M313.703 28.8827C312.677 33.856 311.945 38.536 310.723 43.0774C308.821 50.1374 303.965 52.8667 297.12 51.4787C299.588 48.2987 302.212 44.924 304.836 41.544C304.54 41.3774 304.244 41.2107 303.949 41.0414C300.593 43.388 297.239 45.7333 293.435 48.3947C292.161 36.8827 299.301 30.3147 313.703 28.8827Z" fill="url(#paint25_linear)"/>
<path fill-rule="evenodd" clip-rule="evenodd" d="M47.6867 143.252C35.7161 145.771 29.1521 136.872 30.3681 120.315C42.7987 122.908 50.0147 127.788 49.7227 136.716C46.2881 135.697 42.8401 134.672 39.3894 133.648C39.1161 134.117 38.844 134.58 38.5694 135.049C41.5214 137.705 44.4721 140.359 47.6867 143.252Z" fill="url(#paint26_linear)"/>
<path fill-rule="evenodd" clip-rule="evenodd" d="M27.7706 227.94C22.3306 229.244 18.3545 230.2 14.3772 231.153C14.4572 231.588 14.5386 232.023 14.6199 232.455C18.9426 232.181 23.2639 231.905 27.8092 231.617C24.6506 241.653 15.5119 242.555 2.8772 242.156C4.58653 238.457 6.69853 234.599 8.1772 230.507C9.89853 225.747 13.3439 224.228 17.8012 224.867C20.7772 225.291 23.6226 226.619 27.7706 227.94Z" fill="url(#paint27_linear)"/>
<path fill-rule="evenodd" clip-rule="evenodd" d="M160.691 108.353C152.372 106.744 149.209 102.067 150.077 94.7706C150.328 92.656 150.652 90.5413 150.775 88.4213C150.895 86.3173 150.8 84.2053 150.8 82.0493C163.485 85.796 168.761 95.3279 163.528 104.164C161.455 100.591 159.28 96.8453 157.105 93.104C156.841 93.2466 156.579 93.3933 156.315 93.5386C157.681 98.1613 159.047 102.785 160.691 108.353Z" fill="url(#paint28_linear)"/>
<path fill-rule="evenodd" clip-rule="evenodd" d="M410.131 228.028C418.079 221.268 425.809 223.492 428.845 233.52C429.7 236.343 431.803 238.788 433.252 241.268C423.461 244.403 411.225 240.271 408.717 231.585C413.297 231.828 417.559 232.055 421.819 232.279C421.932 231.957 422.047 231.64 422.163 231.323C418.068 230.2 413.976 229.08 410.131 228.028Z" fill="url(#paint29_linear)"/>
<path fill-rule="evenodd" clip-rule="evenodd" d="M272.433 103.943C267.692 95.0199 272.453 86.4053 284.888 82.1292C285.313 87.1346 285.977 92.1532 286.101 97.1839C286.252 103.276 283.055 106.88 275.631 108.299C277.027 103.167 278.251 98.6666 279.476 94.1666C279.349 93.9973 279.221 93.8252 279.095 93.6559C276.871 97.0879 274.647 100.52 272.433 103.943Z" fill="url(#paint30_linear)"/>
<path fill-rule="evenodd" clip-rule="evenodd" d="M408.383 189.161C409.853 178.457 418.459 175.421 431.429 180.517C428.655 184.607 426.063 188.872 423.028 192.793C418.784 198.279 413.427 198.5 409.333 193.069C416.139 193.333 419.781 189.601 422.312 182.489C418.208 187.495 414.507 191.017 408.383 189.161Z" fill="url(#paint31_linear)"/>
<path fill-rule="evenodd" clip-rule="evenodd" d="M27.7639 189.167C21.8999 190.971 18.1172 187.913 14.3279 182.612C16.1972 189.848 20.0919 193.075 26.5133 193.291C23.4039 198.047 18.9212 198.539 14.7026 194.328C12.4226 192.055 10.964 188.971 9.01996 186.34C7.57863 184.395 5.95195 182.591 4.40662 180.719C17.0239 175.143 26.6386 178.56 27.7639 189.167Z" fill="url(#paint32_linear)"/>
<path fill-rule="evenodd" clip-rule="evenodd" d="M113.813 48.3666C116.871 50.0333 119.928 51.6973 123.201 53.4787C115.345 59.776 106.687 54.836 101.164 41.596C120.487 40.072 121.783 40.5413 124.671 49.9973C121.199 49.1586 117.641 48.2987 114.08 47.44C113.993 47.7493 113.904 48.06 113.813 48.3666Z" fill="url(#paint33_linear)"/>
<path fill-rule="evenodd" clip-rule="evenodd" d="M153.105 169.233C144.225 162.213 152.828 153.708 150.505 146.169C158.852 148.607 165.219 156.161 164.537 162.681C164.101 166.851 162.248 169.831 156.769 169.768C157.131 165.948 157.477 162.281 157.824 158.612C157.436 158.544 157.047 158.476 156.661 158.408C155.513 161.897 154.368 165.388 153.105 169.233Z" fill="url(#paint34_linear)"/>
<path fill-rule="evenodd" clip-rule="evenodd" d="M322.32 47.476C318.908 48.208 315.495 48.9373 312.125 49.6587C312.885 43.4053 317.119 39.8854 323.404 40.3907C325.367 40.5467 327.308 40.9707 329.271 41.104C331.169 41.2267 333.081 41.1293 335.121 41.1293C330.715 53.632 320.099 60.296 312.673 53.744C316.111 51.856 319.28 50.1174 322.449 48.3747C322.405 48.0747 322.364 47.776 322.32 47.476Z" fill="url(#paint35_linear)"/>
<path fill-rule="evenodd" clip-rule="evenodd" d="M415.591 286.468C408.236 280.836 401.303 275.333 405.935 263.351C409.311 266.779 412.38 269.895 415.452 273.015C415.675 272.992 415.896 272.973 416.12 272.952C414.304 269.497 412.493 266.044 410.855 262.927C421.495 264.345 422.4 279.047 415.591 286.468Z" fill="url(#paint36_linear)"/>
<path fill-rule="evenodd" clip-rule="evenodd" d="M20.5452 286.424C12.9706 276.306 15.6092 265.046 26.2519 262.788C22.5866 266.442 19.5372 270.072 21.8039 276.194C21.7812 269.648 25.3066 266.495 30.2759 264.411C33.9786 273.244 32.0146 277.705 20.5452 286.424Z" fill="url(#paint37_linear)"/>
<path fill-rule="evenodd" clip-rule="evenodd" d="M21.7159 296.757C27.7759 283.921 32.2373 280.815 39.7413 283.507C37.5133 285.301 35.0519 287.285 32.5906 289.268C32.8186 289.557 33.0439 289.845 33.2719 290.137C36.4039 288.943 39.5399 287.747 43.0973 286.391C42.3933 297.711 35.1653 300.937 21.7159 296.757Z" fill="url(#paint38_linear)"/>
<path fill-rule="evenodd" clip-rule="evenodd" d="M56.496 110.031C54.7413 110.192 52.9773 110.385 51.204 110.509C49.468 110.632 47.728 110.684 45.988 110.771C45.8626 111.203 45.7373 111.635 45.612 112.067C48.9613 113.083 52.312 114.101 55.5587 115.085C53.2493 120.153 47.4013 121.041 42.684 116.173C39.8507 113.252 37.4266 109.932 34.8386 106.817C47.6346 99.5548 56.184 100.393 56.496 110.031Z" fill="url(#paint39_linear)"/>
<path fill-rule="evenodd" clip-rule="evenodd" d="M380.312 115.151C383.8 114.107 387.156 113.104 390.511 112.101C390.388 111.679 390.265 111.26 390.137 110.84C386.601 110.585 383.06 110.333 379.501 110.077C380.875 103.069 383.512 100.992 390.081 102.391C394.044 103.236 397.831 104.908 401.853 106.263C398.781 109.891 396.224 113.34 393.225 116.351C388.775 120.823 384.012 120.159 380.312 115.151Z" fill="url(#paint40_linear)"/>
<path fill-rule="evenodd" clip-rule="evenodd" d="M76.704 63.8227C77.4707 68.3227 78.2361 72.8253 78.9894 77.2387C74.6867 77.4547 72.2934 75.3533 72.6374 69.8387C72.9867 64.1787 74.1627 58.5747 74.972 52.9573C86.7773 57.2627 90.5067 67.6813 82.384 76.0093C81.3814 73.708 80.328 71.7467 79.6787 69.6613C79.06 67.6733 78.864 65.5573 78.4814 63.4947C77.888 63.604 77.296 63.716 76.704 63.8227Z" fill="url(#paint41_linear)"/>
<path fill-rule="evenodd" clip-rule="evenodd" d="M415.397 296.437C401.9 301.067 394.667 297.995 393.009 286.372C396.757 287.763 399.937 288.945 403.116 290.124C403.365 289.937 403.617 289.752 403.865 289.561C401.364 287.432 398.863 285.299 396.515 283.296C400.445 281.539 404.976 282.651 408.232 285.617C411.193 288.317 412.852 292.448 415.397 296.437Z" fill="url(#paint42_linear)"/>
<path fill-rule="evenodd" clip-rule="evenodd" d="M354.443 76.1893C345.692 67.6013 349.399 57.012 361.032 53.1613C361.901 58.4706 363.081 63.7546 363.56 69.0986C364.064 74.7466 361.529 77.3559 357.248 77.1893C357.995 72.8506 358.763 68.416 359.525 63.9786C358.984 63.872 358.443 63.7626 357.897 63.6559C356.819 67.5613 355.743 71.4679 354.443 76.1893Z" fill="url(#paint43_linear)"/>
<path fill-rule="evenodd" clip-rule="evenodd" d="M158.305 35.4521C154.445 37.1174 150.509 35.6667 148.087 32.64C145.76 29.7334 144.904 25.6507 143.305 21.848C148.1 19.604 152.653 17.828 157.46 20.7814C161.261 23.112 161.904 26.9507 162.035 32.2907C158.623 30.7081 155.981 29.4814 151.852 27.5641C154.453 30.7441 156.26 32.9507 158.305 35.4521Z" fill="url(#paint44_linear)"/>
<path fill-rule="evenodd" clip-rule="evenodd" d="M278.343 35.5227C280.072 33.4947 281.889 31.3613 283.708 29.2307C283.452 29.028 283.193 28.828 282.937 28.6214C280.417 29.908 277.901 31.1893 274.979 32.6786C273.807 27.828 275.179 24.4973 278.052 21.812C281.239 18.8306 284.8 18.9133 292.399 21.672C289.919 34.2387 286.611 37.424 278.343 35.5227Z" fill="url(#paint45_linear)"/>
<path fill-rule="evenodd" clip-rule="evenodd" d="M28.4772 245.227C25.4119 247.179 22.7146 248.897 20.0146 250.617C20.1213 250.804 20.2306 250.989 20.3386 251.179C23.2026 250.637 26.0679 250.099 29.1706 249.515C28.1586 258.968 21.7773 262.028 9.00928 260.455C11.4386 256.336 14.0399 252.007 16.5599 247.629C19.5493 242.435 23.0359 241.653 28.4772 245.227Z" fill="url(#paint46_linear)"/>
<path fill-rule="evenodd" clip-rule="evenodd" d="M406.849 248.285C410.445 249.424 413.239 250.307 416.033 251.192C416.159 251.003 416.284 250.817 416.408 250.627C413.584 248.744 410.76 246.861 407.952 244.989C412.856 241.211 416.583 242.135 419.761 247.708C422.205 251.989 424.86 256.153 427.281 260.14C416.864 261.851 408.395 257.716 406.849 248.285Z" fill="url(#paint47_linear)"/>
<path fill-rule="evenodd" clip-rule="evenodd" d="M243.289 56.3799C245.769 59.5053 247.812 62.3612 250.14 64.9599C254.601 69.9346 254.725 73.3639 249.985 78.4453C248.76 76.6839 247.455 75.0799 246.461 73.3012C245.537 71.6479 244.948 69.8092 243.279 68.2852C243.967 71.6532 244.659 75.0199 245.407 78.6786C242.36 78.7906 240.604 76.9159 239.647 74.1319C237.283 67.2546 239.433 61.4026 243.289 56.3799Z" fill="url(#paint48_linear)"/>
<path fill-rule="evenodd" clip-rule="evenodd" d="M283.061 153.788C283.616 156.905 284.173 160.023 284.773 163.391C280.224 163.825 278.519 161.115 277.583 157.877C276.007 152.435 280.279 145.965 288.392 141.84C287.443 148.971 294.901 155.629 288.049 162.864C286.613 159.465 285.341 156.451 284.068 153.437C283.732 153.552 283.399 153.669 283.061 153.788Z" fill="url(#paint49_linear)"/>
<path fill-rule="evenodd" clip-rule="evenodd" d="M384.788 160.377C385.243 172.817 382.412 176.851 371.865 177.127C374.683 173.885 376.856 171.388 379.028 168.891C378.775 168.523 378.516 168.153 378.259 167.784C375.219 169.793 372.177 171.801 369.464 173.596C368.845 166.033 372.924 162.257 384.788 160.377Z" fill="url(#paint50_linear)"/>
<path fill-rule="evenodd" clip-rule="evenodd" d="M51.3652 160.169C63.5479 162.781 66.6426 165.555 66.7226 174.033C65.0933 172.528 63.8065 170.905 62.1439 169.919C60.3865 168.877 58.2705 168.443 55.8745 168.38C57.2839 169.577 58.7812 170.689 60.0786 172C61.4012 173.339 62.5292 174.869 63.9759 176.591C55.0279 178.205 51.4932 173.367 51.3652 160.169Z" fill="url(#paint51_linear)"/>
<path fill-rule="evenodd" clip-rule="evenodd" d="M415.003 140.567C412.251 147.664 416.228 157.391 405.945 159.971C405.344 159.711 404.744 159.451 404.145 159.189C405.561 155.812 406.976 152.437 408.391 149.061C408.223 148.845 408.051 148.629 407.883 148.416C405.564 150.911 403.244 153.408 400.983 155.84C396.672 150.005 403.729 143.815 415.003 140.567Z" fill="url(#paint52_linear)"/>
<path fill-rule="evenodd" clip-rule="evenodd" d="M35.1254 155.672C32.4361 152.823 29.8667 150.102 27.3 147.38C26.96 147.622 26.6214 147.864 26.2841 148.104C28.0507 151.81 32.9081 154.395 30.8254 159.987C19.6854 157.348 24.0854 147.361 21.1814 140.823C33.4614 143.951 38.3001 149.466 35.1254 155.672Z" fill="url(#paint53_linear)"/>
<path fill-rule="evenodd" clip-rule="evenodd" d="M188.999 26.3201C182.176 16.2241 191.823 12.6841 194.932 6.90008C200.965 13.8361 200.525 20.5228 193.281 25.4654C193.687 22.8668 194.036 20.6147 194.601 16.9787C192.38 20.6841 190.881 23.1841 188.999 26.3201Z" fill="url(#paint54_linear)"/>
<path fill-rule="evenodd" clip-rule="evenodd" d="M184.92 81.9707C180.601 77.1187 180.581 74.8013 184.388 70.4573C185.471 69.2213 186.8 68.1667 187.715 66.8227C188.619 65.5053 189.139 63.9213 189.799 62.5067C196.683 69.6733 196.019 80.1613 188.479 82.1187C189.175 79.2653 189.884 76.3587 190.592 73.4547C190.383 73.4 190.173 73.3427 189.963 73.284C188.317 76.1187 186.676 78.952 184.92 81.9707Z" fill="url(#paint55_linear)"/>
<path fill-rule="evenodd" clip-rule="evenodd" d="M247.363 26.1641C245.552 23.1561 244.112 20.7681 242.673 18.3827C242.409 18.4427 242.149 18.5054 241.889 18.5641C242.487 20.9054 243.084 23.2494 243.677 25.5747C236.564 22.1787 235.604 15.7788 240.88 6.96009C250.969 16.9841 251.829 19.1561 247.363 26.1641Z" fill="url(#paint56_linear)"/>
<path fill-rule="evenodd" clip-rule="evenodd" d="M65.9933 307.408C72.7053 312.684 72.404 318.799 65.3014 325.619C57.1734 313.533 56.9 312.091 62.428 306.689C63.6333 309.419 64.7306 311.908 65.828 314.4C66.0733 314.345 66.3187 314.291 66.564 314.236C66.3853 312.104 66.2067 309.968 65.9933 307.408Z" fill="url(#paint57_linear)"/>
<path fill-rule="evenodd" clip-rule="evenodd" d="M338.392 217.56C346.851 215.656 348.033 226.911 356.057 225.736C351.345 230.179 343.523 231.233 338.857 228.635C335.723 226.885 334.484 224.339 336.201 220.151C337.759 221.005 339.307 221.664 340.629 222.632C342.04 223.661 343.235 224.981 344.525 226.173C344.848 225.869 345.172 225.567 345.493 225.263C343.26 222.84 341.027 220.416 338.392 217.56Z" fill="url(#paint58_linear)"/>
<path fill-rule="evenodd" clip-rule="evenodd" d="M370.067 307.654C369.896 310.435 369.765 312.599 369.633 314.763C369.919 314.818 370.203 314.878 370.488 314.935C371.385 312.351 372.284 309.771 373.292 306.859C377.957 309.156 378.055 312.766 376.732 316.162C375.453 319.438 373.179 322.328 371.343 325.388C364.028 320.758 363.392 314.174 370.067 307.654Z" fill="url(#paint59_linear)"/>
<path fill-rule="evenodd" clip-rule="evenodd" d="M97.1014 219.221C100.184 223.257 98.5774 225.684 95.9707 227.888C91.8867 231.34 84.5894 231.452 78.3347 227.257C86.7374 227.432 86.392 216.203 95.0947 217.093C92.9427 219.981 91.04 222.541 89.1347 225.099C89.3987 225.385 89.6627 225.672 89.9267 225.955C92.288 223.741 94.6494 221.525 97.1014 219.221Z" fill="url(#paint60_linear)"/>
<path fill-rule="evenodd" clip-rule="evenodd" d="M169.221 167.541C175.677 176.224 174.988 182.489 166.557 186.211C166.557 184.411 166.412 182.877 166.596 181.383C166.787 179.825 167.295 178.304 167.663 176.771C167.22 176.648 166.779 176.525 166.337 176.403C165.465 179.46 164.593 182.52 163.747 185.497C160.092 183.672 159.54 181.115 162.465 176.741C164.544 173.635 166.884 170.705 169.221 167.541Z" fill="url(#paint61_linear)"/>
<path fill-rule="evenodd" clip-rule="evenodd" d="M126.383 79.9787C126.508 82.4787 126.635 84.984 126.768 87.624C120.103 86.5614 120.076 86.468 121.323 70.984C130.205 72.9894 133.548 79.184 129.632 86.4134C128.744 84.2054 127.849 81.976 126.955 79.7467C126.764 79.8227 126.573 79.9027 126.383 79.9787Z" fill="url(#paint62_linear)"/>
<path fill-rule="evenodd" clip-rule="evenodd" d="M310.216 81.288C309.117 84.4186 308.351 86.5906 307.623 88.6586C302.868 82.976 305.487 76.7186 314.524 72.952C314.661 79.14 321.376 86.3227 310.805 91.448C310.607 88.0333 310.445 85.2333 310.216 81.288Z" fill="url(#paint63_linear)"/>
<path fill-rule="evenodd" clip-rule="evenodd" d="M160.621 122.664C153.349 128.44 149.371 123.785 144.961 111.897C154.015 110.288 158.808 112.465 160.416 119.268C157.657 118.621 155.056 118.009 152.455 117.403C152.297 117.809 152.14 118.219 151.984 118.627C154.771 119.929 157.557 121.231 160.621 122.664Z" fill="url(#paint64_linear)"/>
<path fill-rule="evenodd" clip-rule="evenodd" d="M276.269 119.408C278.707 112.388 282.247 110.733 291.928 111.601C288.523 122.135 283.837 129.2 276.04 122.288C278.067 121.785 279.817 121.629 281.296 120.911C282.693 120.233 283.805 118.968 284.731 117.345C282.121 117.981 279.512 118.619 276.269 119.408Z" fill="url(#paint65_linear)"/>
<path fill-rule="evenodd" clip-rule="evenodd" d="M279.844 177.271C277.496 174.252 275.648 171.875 273.8 169.5C273.507 169.664 273.213 169.825 272.916 169.987C274.395 172.672 275.868 175.356 277.288 177.945C272.627 179.325 272.627 179.325 268.571 162.528C278.543 163.085 283.04 168.252 279.844 177.271Z" fill="url(#paint66_linear)"/>
<path fill-rule="evenodd" clip-rule="evenodd" d="M132.656 216.481C133.837 211.067 135.017 205.651 136.169 200.359C139.887 201.973 144.156 208.601 143.715 212.945C143.345 216.552 140.951 219.041 136.988 219.971C137.933 216.703 138.909 213.34 139.884 209.976C139.524 209.891 139.167 209.801 138.807 209.713C137.54 212.265 136.276 214.817 135.009 217.369C134.225 217.075 133.443 216.779 132.656 216.481Z" fill="url(#paint67_linear)"/>
<path fill-rule="evenodd" clip-rule="evenodd" d="M306.924 163.112C307.761 154.804 314.523 155.312 319.551 153.075C321.303 157.181 320.339 161.039 317.633 163.96C315.94 165.788 312.917 166.383 310.492 167.528C310.148 166.913 309.801 166.296 309.456 165.679C311.465 164.309 313.475 162.937 315.485 161.564C315.424 161.38 315.364 161.195 315.301 161.009C312.693 161.664 310.083 162.317 306.924 163.112Z" fill="url(#paint68_linear)"/>
<path fill-rule="evenodd" clip-rule="evenodd" d="M421.716 159.643C420.005 165.916 421.925 173.784 412.321 175.279C414.12 172.612 415.672 170.304 417.227 167.997C416.957 167.76 416.689 167.523 416.421 167.285C414.729 168.728 413.035 170.172 411.219 171.721C409.048 164.117 412.223 160.432 421.716 159.643Z" fill="url(#paint69_linear)"/>
<path fill-rule="evenodd" clip-rule="evenodd" d="M14.8733 159.741C23.4853 160.195 26.1 162.903 25.7013 172.075C23.352 170.187 21.48 168.684 19.6066 167.179C19.3973 167.228 19.1853 167.279 18.976 167.328C20.4386 169.856 21.8986 172.388 23.2773 174.773C17.1973 174.293 16.3506 172.825 14.8733 159.741Z" fill="url(#paint70_linear)"/>
<path fill-rule="evenodd" clip-rule="evenodd" d="M120.767 166.659C118.316 162.727 115.865 158.793 113.305 154.692C116.365 152.069 121.181 152.227 124.925 155.773C127.909 158.604 127.82 161.719 124.704 165.455C123.901 163.239 123.084 160.984 122.265 158.728C121.969 158.825 121.673 158.924 121.376 159.023C121.584 161.408 121.789 163.796 121.996 166.181C121.588 166.34 121.177 166.5 120.767 166.659Z" fill="url(#paint71_linear)"/>
<path fill-rule="evenodd" clip-rule="evenodd" d="M304.76 216.7C304.287 214.08 303.936 212.132 303.583 210.187C303.224 210.189 302.864 210.195 302.501 210.203C302.323 212.437 302.143 214.672 301.949 217.107C295.771 214.107 296.101 205.943 302.281 200.205C305.499 205.127 310.133 209.645 304.76 216.7Z" fill="url(#paint72_linear)"/>
<path fill-rule="evenodd" clip-rule="evenodd" d="M271.259 58.0361C271.259 60.7214 271.259 63.4001 271.259 66.3254C265.504 62.0667 266.349 56.1921 273.076 51.1428C278.619 58.2134 278.905 60.5694 274.359 66.7361C273.484 63.5548 272.748 60.8828 272.013 58.2108C271.764 58.1508 271.512 58.0934 271.259 58.0361Z" fill="url(#paint73_linear)"/>
<path fill-rule="evenodd" clip-rule="evenodd" d="M377.715 181.132C382.639 174.213 388.836 181.856 393.648 178.372C393.327 186.716 387.492 189.476 380.063 184.913C381.452 183.948 382.707 183.072 384.647 181.721C382.124 181.507 380.211 181.343 377.715 181.132Z" fill="url(#paint74_linear)"/>
<path fill-rule="evenodd" clip-rule="evenodd" d="M164.856 51.1587C171.171 55.5414 171.695 61.6667 165.58 66.6121C165.675 64.7934 165.664 63.432 165.837 62.0934C165.999 60.8587 166.361 59.6507 165.783 58.1481C164.751 60.7734 163.723 63.3947 162.668 66.0934C158.272 61.5147 158.537 59.836 164.856 51.1587Z" fill="url(#paint75_linear)"/>
<path fill-rule="evenodd" clip-rule="evenodd" d="M58.6173 181.197C56.036 181.34 54.1533 181.44 51.54 181.585C53.288 182.875 54.56 183.812 55.9106 184.807C49.144 189.552 43.504 187.041 42.1333 178.26C47.1933 181.88 53.424 174.247 58.6173 181.197Z" fill="url(#paint76_linear)"/>
<path fill-rule="evenodd" clip-rule="evenodd" d="M90.3627 65.1814C85.8227 58.5641 94.0773 54.8334 92.1853 49.184C99.2053 52.3174 100 59.5494 93.944 64.5987C93.6307 62.8614 93.3573 61.336 92.9187 58.8907C91.9507 61.2707 91.2827 62.9187 90.3627 65.1814Z" fill="url(#paint77_linear)"/>
<path fill-rule="evenodd" clip-rule="evenodd" d="M210.011 -3.17055e-05C215.924 6.1693 214.9 11.6186 207.775 14.2026C207.775 12.7026 207.775 11.3119 207.775 9.26794C206.395 10.9346 205.343 12.2026 203.896 13.9506C200.949 6.47595 209.315 5.2933 210.011 -3.17055e-05Z" fill="url(#paint78_linear)"/>
<path fill-rule="evenodd" clip-rule="evenodd" d="M343.744 48.6481C342.38 54.7467 350.205 58.5801 345.927 65.0774C344.947 62.9574 344.169 61.276 343.068 58.8974C342.739 61.3067 342.527 62.8614 342.301 64.5094C336.548 60.4267 336.868 53.8801 343.744 48.6481Z" fill="url(#paint79_linear)"/>
<path fill-rule="evenodd" clip-rule="evenodd" d="M196.139 59.2027C196.428 61.2267 196.716 63.2521 197.028 65.4374C191.632 60.9867 192.771 54.6267 199.659 50.3747C198.085 55.4267 206.239 60.26 199.412 65.8174C198.457 63.356 197.647 61.2681 196.835 59.1787C196.603 59.1867 196.371 59.1947 196.139 59.2027Z" fill="url(#paint80_linear)"/>
<path fill-rule="evenodd" clip-rule="evenodd" d="M227.737 2.4346C230.539 6.48394 233.024 10.072 235.509 13.6666C235.012 14.0173 234.517 14.372 234.023 14.724C233.119 13.716 232.211 12.7106 230.883 11.228C230.883 13.1693 230.883 14.4213 230.883 16.356C229.3 15.3773 227.983 14.8306 227.023 13.916C223.988 11.02 224.159 7.45194 227.737 2.4346Z" fill="url(#paint81_linear)"/>
<path fill-rule="evenodd" clip-rule="evenodd" d="M76.5853 310.273C77.3906 311.945 77.8733 312.951 78.808 314.891C79.084 312.596 79.2493 311.216 79.416 309.839C79.8173 309.627 80.22 309.413 80.6227 309.203C81.64 310.719 83.212 312.117 83.564 313.771C84.3653 317.561 82.6027 320.405 78.6893 322.443C79.6493 318.047 72.7706 315.768 76.5853 310.273Z" fill="url(#paint82_linear)"/>
<path fill-rule="evenodd" clip-rule="evenodd" d="M361.007 311.992C359.439 315.345 357.867 318.694 356.261 322.126C350.477 317.981 350.323 313.096 356 309.902C356.263 311.364 356.505 312.702 356.824 314.462C357.732 313.254 358.467 312.278 359.201 311.301C359.803 311.53 360.403 311.762 361.007 311.992Z" fill="url(#paint83_linear)"/>
<path fill-rule="evenodd" clip-rule="evenodd" d="M215.657 39.5613C215.169 36.9893 214.801 35.0413 214.171 31.6946C213.437 34.8853 212.991 36.8306 212.556 38.7186C208.693 35.5386 209 32.9426 214.011 27.2733C219.139 30.8693 219.744 34.0279 215.657 39.5613Z" fill="url(#paint84_linear)"/>
<path fill-rule="evenodd" clip-rule="evenodd" d="M223.215 39.7654C222.976 38.9507 222.732 38.132 222.404 37.028C221.58 37.8934 220.965 38.536 220.16 39.3827C218.079 34.0147 222.845 33.1921 225.208 30.8934C225.697 31.0027 226.188 31.1094 226.679 31.2187C226.185 34.0987 225.695 36.984 225.199 39.8667C224.539 39.8334 223.877 39.7987 223.215 39.7654Z" fill="url(#paint85_linear)"/>
<defs>
<linearGradient id="paint0_linear" x1="405.789" y1="423.439" x2="405.789" y2="14.2316" gradientUnits="userSpaceOnUse">
<stop stop-color="#2AF598"/>
<stop offset="1" stop-color="#009EFD"/>
</linearGradient>
<linearGradient id="paint1_linear" x1="354.371" y1="133.528" x2="354.371" y2="57.8461" gradientUnits="userSpaceOnUse">
<stop stop-color="#2AF598"/>
<stop offset="1" stop-color="#009EFD"/>
</linearGradient>
<linearGradient id="paint2_linear" x1="306.054" y1="119.744" x2="306.054" y2="33.1722" gradientUnits="userSpaceOnUse">
<stop stop-color="#2AF598"/>
<stop offset="1" stop-color="#009EFD"/>
</linearGradient>
<linearGradient id="paint3_linear" x1="87.4106" y1="207.656" x2="87.4106" y2="137.416" gradientUnits="userSpaceOnUse">
<stop stop-color="#2AF598"/>
<stop offset="1" stop-color="#009EFD"/>
</linearGradient>
<linearGradient id="paint4_linear" x1="126.359" y1="138.273" x2="126.359" y2="110.491" gradientUnits="userSpaceOnUse">
<stop stop-color="#2AF598"/>
<stop offset="1" stop-color="#009EFD"/>
</linearGradient>
<linearGradient id="paint5_linear" x1="377.882" y1="172.9" x2="377.882" y2="109.645" gradientUnits="userSpaceOnUse">
<stop stop-color="#2AF598"/>
<stop offset="1" stop-color="#009EFD"/>
</linearGradient>
<linearGradient id="paint6_linear" x1="215.44" y1="61.4373" x2="215.44" y2="32.9898" gradientUnits="userSpaceOnUse">
<stop stop-color="#2AF598"/>
<stop offset="1" stop-color="#009EFD"/>
</linearGradient>
<linearGradient id="paint7_linear" x1="76.1678" y1="103.396" x2="76.1678" y2="67.8507" gradientUnits="userSpaceOnUse">
<stop stop-color="#2AF598"/>
<stop offset="1" stop-color="#009EFD"/>
</linearGradient>
<linearGradient id="paint8_linear" x1="385.081" y1="104.572" x2="385.081" y2="73.0601" gradientUnits="userSpaceOnUse">
<stop stop-color="#2AF598"/>
<stop offset="1" stop-color="#009EFD"/>
</linearGradient>
<linearGradient id="paint9_linear" x1="379.721" y1="220.943" x2="379.721" y2="198.893" gradientUnits="userSpaceOnUse">
<stop stop-color="#2AF598"/>
<stop offset="1" stop-color="#009EFD"/>
</linearGradient>
<linearGradient id="paint10_linear" x1="88.427" y1="221.061" x2="88.427" y2="199.326" gradientUnits="userSpaceOnUse">
<stop stop-color="#2AF598"/>
<stop offset="1" stop-color="#009EFD"/>
</linearGradient>
<linearGradient id="paint11_linear" x1="437.644" y1="221.552" x2="437.644" y2="200.14" gradientUnits="userSpaceOnUse">
<stop stop-color="#2AF598"/>
<stop offset="1" stop-color="#009EFD"/>
</linearGradient>
<linearGradient id="paint12_linear" x1="31.4321" y1="221.352" x2="31.4321" y2="200.192" gradientUnits="userSpaceOnUse">
<stop stop-color="#2AF598"/>
<stop offset="1" stop-color="#009EFD"/>
</linearGradient>
<linearGradient id="paint13_linear" x1="183.835" y1="31.9326" x2="183.835" y2="2.70012" gradientUnits="userSpaceOnUse">
<stop stop-color="#2AF598"/>
<stop offset="1" stop-color="#009EFD"/>
</linearGradient>
<linearGradient id="paint14_linear" x1="126.892" y1="111.023" x2="126.892" y2="83.0933" gradientUnits="userSpaceOnUse">
<stop stop-color="#2AF598"/>
<stop offset="1" stop-color="#009EFD"/>
</linearGradient>
<linearGradient id="paint15_linear" x1="271.889" y1="31.2627" x2="271.889" y2="2.65599" gradientUnits="userSpaceOnUse">
<stop stop-color="#2AF598"/>
<stop offset="1" stop-color="#009EFD"/>
</linearGradient>
<linearGradient id="paint16_linear" x1="335.839" y1="111.393" x2="335.839" y2="87.535" gradientUnits="userSpaceOnUse">
<stop stop-color="#2AF598"/>
<stop offset="1" stop-color="#009EFD"/>
</linearGradient>
<linearGradient id="paint17_linear" x1="55.6119" y1="322.315" x2="55.6119" y2="297.212" gradientUnits="userSpaceOnUse">
<stop stop-color="#2AF598"/>
<stop offset="1" stop-color="#009EFD"/>
</linearGradient>
<linearGradient id="paint18_linear" x1="400.1" y1="322.132" x2="400.1" y2="297.189" gradientUnits="userSpaceOnUse">
<stop stop-color="#2AF598"/>
<stop offset="1" stop-color="#009EFD"/>
</linearGradient>
<linearGradient id="paint19_linear" x1="180.67" y1="131.76" x2="180.67" y2="103.687" gradientUnits="userSpaceOnUse">
<stop stop-color="#2AF598"/>
<stop offset="1" stop-color="#009EFD"/>
</linearGradient>
<linearGradient id="paint20_linear" x1="327.514" y1="207.984" x2="327.514" y2="183.58" gradientUnits="userSpaceOnUse">
<stop stop-color="#2AF598"/>
<stop offset="1" stop-color="#009EFD"/>
</linearGradient>
<linearGradient id="paint21_linear" x1="129.618" y1="210.055" x2="129.618" y2="185.012" gradientUnits="userSpaceOnUse">
<stop stop-color="#2AF598"/>
<stop offset="1" stop-color="#009EFD"/>
</linearGradient>
<linearGradient id="paint22_linear" x1="405.83" y1="143.241" x2="405.83" y2="119.429" gradientUnits="userSpaceOnUse">
<stop stop-color="#2AF598"/>
<stop offset="1" stop-color="#009EFD"/>
</linearGradient>
<linearGradient id="paint23_linear" x1="273.056" y1="131.353" x2="273.056" y2="103.992" gradientUnits="userSpaceOnUse">
<stop stop-color="#2AF598"/>
<stop offset="1" stop-color="#009EFD"/>
</linearGradient>
<linearGradient id="paint24_linear" x1="143.068" y1="52.0361" x2="143.068" y2="28.828" gradientUnits="userSpaceOnUse">
<stop stop-color="#2AF598"/>
<stop offset="1" stop-color="#009EFD"/>
</linearGradient>
<linearGradient id="paint25_linear" x1="313.703" y1="51.8286" x2="313.703" y2="28.8827" gradientUnits="userSpaceOnUse">
<stop stop-color="#2AF598"/>
<stop offset="1" stop-color="#009EFD"/>
</linearGradient>
<linearGradient id="paint26_linear" x1="49.7313" y1="143.674" x2="49.7313" y2="120.315" gradientUnits="userSpaceOnUse">
<stop stop-color="#2AF598"/>
<stop offset="1" stop-color="#009EFD"/>
</linearGradient>
<linearGradient id="paint27_linear" x1="27.8092" y1="242.23" x2="27.8092" y2="224.728" gradientUnits="userSpaceOnUse">
<stop stop-color="#2AF598"/>
<stop offset="1" stop-color="#009EFD"/>
</linearGradient>
<linearGradient id="paint28_linear" x1="165.533" y1="108.353" x2="165.533" y2="82.0493" gradientUnits="userSpaceOnUse">
<stop stop-color="#2AF598"/>
<stop offset="1" stop-color="#009EFD"/>
</linearGradient>
<linearGradient id="paint29_linear" x1="433.252" y1="242.311" x2="433.252" y2="224.148" gradientUnits="userSpaceOnUse">
<stop stop-color="#2AF598"/>
<stop offset="1" stop-color="#009EFD"/>
</linearGradient>
<linearGradient id="paint30_linear" x1="286.106" y1="108.299" x2="286.106" y2="82.1292" gradientUnits="userSpaceOnUse">
<stop stop-color="#2AF598"/>
<stop offset="1" stop-color="#009EFD"/>
</linearGradient>
<linearGradient id="paint31_linear" x1="431.429" y1="197.027" x2="431.429" y2="178.108" gradientUnits="userSpaceOnUse">
<stop stop-color="#2AF598"/>
<stop offset="1" stop-color="#009EFD"/>
</linearGradient>
<linearGradient id="paint32_linear" x1="27.7639" y1="197.196" x2="27.7639" y2="178.069" gradientUnits="userSpaceOnUse">
<stop stop-color="#2AF598"/>
<stop offset="1" stop-color="#009EFD"/>
</linearGradient>
<linearGradient id="paint33_linear" x1="124.671" y1="56.1938" x2="124.671" y2="40.9344" gradientUnits="userSpaceOnUse">
<stop stop-color="#2AF598"/>
<stop offset="1" stop-color="#009EFD"/>
</linearGradient>
<linearGradient id="paint34_linear" x1="164.587" y1="169.769" x2="164.587" y2="146.169" gradientUnits="userSpaceOnUse">
<stop stop-color="#2AF598"/>
<stop offset="1" stop-color="#009EFD"/>
</linearGradient>
<linearGradient id="paint35_linear" x1="335.121" y1="56.3062" x2="335.121" y2="40.3428" gradientUnits="userSpaceOnUse">
<stop stop-color="#2AF598"/>
<stop offset="1" stop-color="#009EFD"/>
</linearGradient>
<linearGradient id="paint36_linear" x1="419.938" y1="286.468" x2="419.938" y2="262.927" gradientUnits="userSpaceOnUse">
<stop stop-color="#2AF598"/>
<stop offset="1" stop-color="#009EFD"/>
</linearGradient>
<linearGradient id="paint37_linear" x1="31.9749" y1="286.424" x2="31.9749" y2="262.788" gradientUnits="userSpaceOnUse">
<stop stop-color="#2AF598"/>
<stop offset="1" stop-color="#009EFD"/>
</linearGradient>
<linearGradient id="paint38_linear" x1="43.0973" y1="298.511" x2="43.0973" y2="282.614" gradientUnits="userSpaceOnUse">
<stop stop-color="#2AF598"/>
<stop offset="1" stop-color="#009EFD"/>
</linearGradient>
<linearGradient id="paint39_linear" x1="56.496" y1="119.392" x2="56.496" y2="101.995" gradientUnits="userSpaceOnUse">
<stop stop-color="#2AF598"/>
<stop offset="1" stop-color="#009EFD"/>
</linearGradient>
<linearGradient id="paint40_linear" x1="401.853" y1="119.34" x2="401.853" y2="101.98" gradientUnits="userSpaceOnUse">
<stop stop-color="#2AF598"/>
<stop offset="1" stop-color="#009EFD"/>
</linearGradient>
<linearGradient id="paint41_linear" x1="86.7251" y1="77.2537" x2="86.7251" y2="52.9573" gradientUnits="userSpaceOnUse">
<stop stop-color="#2AF598"/>
<stop offset="1" stop-color="#009EFD"/>
</linearGradient>
<linearGradient id="paint42_linear" x1="415.397" y1="298.502" x2="415.397" y2="282.457" gradientUnits="userSpaceOnUse">
<stop stop-color="#2AF598"/>
<stop offset="1" stop-color="#009EFD"/>
</linearGradient>
<linearGradient id="paint43_linear" x1="363.623" y1="77.1968" x2="363.623" y2="53.1613" gradientUnits="userSpaceOnUse">
<stop stop-color="#2AF598"/>
<stop offset="1" stop-color="#009EFD"/>
</linearGradient>
<linearGradient id="paint44_linear" x1="162.035" y1="36.1523" x2="162.035" y2="19.2293" gradientUnits="userSpaceOnUse">
<stop stop-color="#2AF598"/>
<stop offset="1" stop-color="#009EFD"/>
</linearGradient>
<linearGradient id="paint45_linear" x1="292.399" y1="36.0305" x2="292.399" y2="19.5894" gradientUnits="userSpaceOnUse">
<stop stop-color="#2AF598"/>
<stop offset="1" stop-color="#009EFD"/>
</linearGradient>
<linearGradient id="paint46_linear" x1="29.1706" y1="260.847" x2="29.1706" y2="243.032" gradientUnits="userSpaceOnUse">
<stop stop-color="#2AF598"/>
<stop offset="1" stop-color="#009EFD"/>
</linearGradient>
<linearGradient id="paint47_linear" x1="427.281" y1="260.517" x2="427.281" y2="242.709" gradientUnits="userSpaceOnUse">
<stop stop-color="#2AF598"/>
<stop offset="1" stop-color="#009EFD"/>
</linearGradient>
<linearGradient id="paint48_linear" x1="253.513" y1="78.6833" x2="253.513" y2="56.3799" gradientUnits="userSpaceOnUse">
<stop stop-color="#2AF598"/>
<stop offset="1" stop-color="#009EFD"/>
</linearGradient>
<linearGradient id="paint49_linear" x1="290.976" y1="163.437" x2="290.976" y2="141.84" gradientUnits="userSpaceOnUse">
<stop stop-color="#2AF598"/>
<stop offset="1" stop-color="#009EFD"/>
</linearGradient>
<linearGradient id="paint50_linear" x1="384.834" y1="177.127" x2="384.834" y2="160.377" gradientUnits="userSpaceOnUse">
<stop stop-color="#2AF598"/>
<stop offset="1" stop-color="#009EFD"/>
</linearGradient>
<linearGradient id="paint51_linear" x1="66.7226" y1="176.89" x2="66.7226" y2="160.169" gradientUnits="userSpaceOnUse">
<stop stop-color="#2AF598"/>
<stop offset="1" stop-color="#009EFD"/>
</linearGradient>
<linearGradient id="paint52_linear" x1="415.003" y1="159.971" x2="415.003" y2="140.567" gradientUnits="userSpaceOnUse">
<stop stop-color="#2AF598"/>
<stop offset="1" stop-color="#009EFD"/>
</linearGradient>
<linearGradient id="paint53_linear" x1="36.0732" y1="159.987" x2="36.0732" y2="140.823" gradientUnits="userSpaceOnUse">
<stop stop-color="#2AF598"/>
<stop offset="1" stop-color="#009EFD"/>
</linearGradient>
<linearGradient id="paint54_linear" x1="199.117" y1="26.3201" x2="199.117" y2="6.90008" gradientUnits="userSpaceOnUse">
<stop stop-color="#2AF598"/>
<stop offset="1" stop-color="#009EFD"/>
</linearGradient>
<linearGradient id="paint55_linear" x1="194.573" y1="82.1187" x2="194.573" y2="62.5067" gradientUnits="userSpaceOnUse">
<stop stop-color="#2AF598"/>
<stop offset="1" stop-color="#009EFD"/>
</linearGradient>
<linearGradient id="paint56_linear" x1="249.935" y1="26.1641" x2="249.935" y2="6.96009" gradientUnits="userSpaceOnUse">
<stop stop-color="#2AF598"/>
<stop offset="1" stop-color="#009EFD"/>
</linearGradient>
<linearGradient id="paint57_linear" x1="70.8345" y1="325.619" x2="70.8345" y2="306.689" gradientUnits="userSpaceOnUse">
<stop stop-color="#2AF598"/>
<stop offset="1" stop-color="#009EFD"/>
</linearGradient>
<linearGradient id="paint58_linear" x1="356.057" y1="230.033" x2="356.057" y2="217.342" gradientUnits="userSpaceOnUse">
<stop stop-color="#2AF598"/>
<stop offset="1" stop-color="#009EFD"/>
</linearGradient>
<linearGradient id="paint59_linear" x1="377.465" y1="325.388" x2="377.465" y2="306.859" gradientUnits="userSpaceOnUse">
<stop stop-color="#2AF598"/>
<stop offset="1" stop-color="#009EFD"/>
</linearGradient>
<linearGradient id="paint60_linear" x1="98.7873" y1="230.443" x2="98.7873" y2="217.043" gradientUnits="userSpaceOnUse">
<stop stop-color="#2AF598"/>
<stop offset="1" stop-color="#009EFD"/>
</linearGradient>
<linearGradient id="paint61_linear" x1="173.543" y1="186.211" x2="173.543" y2="167.541" gradientUnits="userSpaceOnUse">
<stop stop-color="#2AF598"/>
<stop offset="1" stop-color="#009EFD"/>
</linearGradient>
<linearGradient id="paint62_linear" x1="131.252" y1="87.624" x2="131.252" y2="70.984" gradientUnits="userSpaceOnUse">
<stop stop-color="#2AF598"/>
<stop offset="1" stop-color="#009EFD"/>
</linearGradient>
<linearGradient id="paint63_linear" x1="316.752" y1="91.448" x2="316.752" y2="72.952" gradientUnits="userSpaceOnUse">
<stop stop-color="#2AF598"/>
<stop offset="1" stop-color="#009EFD"/>
</linearGradient>
<linearGradient id="paint64_linear" x1="160.621" y1="125.135" x2="160.621" y2="111.392" gradientUnits="userSpaceOnUse">
<stop stop-color="#2AF598"/>
<stop offset="1" stop-color="#009EFD"/>
</linearGradient>
<linearGradient id="paint65_linear" x1="291.928" y1="125.038" x2="291.928" y2="111.39" gradientUnits="userSpaceOnUse">
<stop stop-color="#2AF598"/>
<stop offset="1" stop-color="#009EFD"/>
</linearGradient>
<linearGradient id="paint66_linear" x1="280.86" y1="178.492" x2="280.86" y2="162.528" gradientUnits="userSpaceOnUse">
<stop stop-color="#2AF598"/>
<stop offset="1" stop-color="#009EFD"/>
</linearGradient>
<linearGradient id="paint67_linear" x1="143.746" y1="219.971" x2="143.746" y2="200.359" gradientUnits="userSpaceOnUse">
<stop stop-color="#2AF598"/>
<stop offset="1" stop-color="#009EFD"/>
</linearGradient>
<linearGradient id="paint68_linear" x1="320.434" y1="167.528" x2="320.434" y2="153.075" gradientUnits="userSpaceOnUse">
<stop stop-color="#2AF598"/>
<stop offset="1" stop-color="#009EFD"/>
</linearGradient>
<linearGradient id="paint69_linear" x1="421.716" y1="175.279" x2="421.716" y2="159.643" gradientUnits="userSpaceOnUse">
<stop stop-color="#2AF598"/>
<stop offset="1" stop-color="#009EFD"/>
</linearGradient>
<linearGradient id="paint70_linear" x1="25.74" y1="174.773" x2="25.74" y2="159.741" gradientUnits="userSpaceOnUse">
<stop stop-color="#2AF598"/>
<stop offset="1" stop-color="#009EFD"/>
</linearGradient>
<linearGradient id="paint71_linear" x1="127.104" y1="166.659" x2="127.104" y2="152.896" gradientUnits="userSpaceOnUse">
<stop stop-color="#2AF598"/>
<stop offset="1" stop-color="#009EFD"/>
</linearGradient>
<linearGradient id="paint72_linear" x1="307.221" y1="217.107" x2="307.221" y2="200.205" gradientUnits="userSpaceOnUse">
<stop stop-color="#2AF598"/>
<stop offset="1" stop-color="#009EFD"/>
</linearGradient>
<linearGradient id="paint73_linear" x1="277.524" y1="66.7361" x2="277.524" y2="51.1428" gradientUnits="userSpaceOnUse">
<stop stop-color="#2AF598"/>
<stop offset="1" stop-color="#009EFD"/>
</linearGradient>
<linearGradient id="paint74_linear" x1="393.648" y1="187.101" x2="393.648" y2="178.115" gradientUnits="userSpaceOnUse">
<stop stop-color="#2AF598"/>
<stop offset="1" stop-color="#009EFD"/>
</linearGradient>
<linearGradient id="paint75_linear" x1="169.891" y1="66.6121" x2="169.891" y2="51.1587" gradientUnits="userSpaceOnUse">
<stop stop-color="#2AF598"/>
<stop offset="1" stop-color="#009EFD"/>
</linearGradient>
<linearGradient id="paint76_linear" x1="58.6173" y1="187.17" x2="58.6173" y2="178.15" gradientUnits="userSpaceOnUse">
<stop stop-color="#2AF598"/>
<stop offset="1" stop-color="#009EFD"/>
</linearGradient>
<linearGradient id="paint77_linear" x1="98.0148" y1="65.1814" x2="98.0148" y2="49.184" gradientUnits="userSpaceOnUse">
<stop stop-color="#2AF598"/>
<stop offset="1" stop-color="#009EFD"/>
</linearGradient>
<linearGradient id="paint78_linear" x1="213.858" y1="14.2026" x2="213.858" y2="-3.17055e-05" gradientUnits="userSpaceOnUse">
<stop stop-color="#2AF598"/>
<stop offset="1" stop-color="#009EFD"/>
</linearGradient>
<linearGradient id="paint79_linear" x1="347.22" y1="65.0774" x2="347.22" y2="48.6481" gradientUnits="userSpaceOnUse">
<stop stop-color="#2AF598"/>
<stop offset="1" stop-color="#009EFD"/>
</linearGradient>
<linearGradient id="paint80_linear" x1="202.179" y1="65.8174" x2="202.179" y2="50.3747" gradientUnits="userSpaceOnUse">
<stop stop-color="#2AF598"/>
<stop offset="1" stop-color="#009EFD"/>
</linearGradient>
<linearGradient id="paint81_linear" x1="235.509" y1="16.356" x2="235.509" y2="2.4346" gradientUnits="userSpaceOnUse">
<stop stop-color="#2AF598"/>
<stop offset="1" stop-color="#009EFD"/>
</linearGradient>
<linearGradient id="paint82_linear" x1="83.7534" y1="322.443" x2="83.7534" y2="309.203" gradientUnits="userSpaceOnUse">
<stop stop-color="#2AF598"/>
<stop offset="1" stop-color="#009EFD"/>
</linearGradient>
<linearGradient id="paint83_linear" x1="361.007" y1="322.126" x2="361.007" y2="309.902" gradientUnits="userSpaceOnUse">
<stop stop-color="#2AF598"/>
<stop offset="1" stop-color="#009EFD"/>
</linearGradient>
<linearGradient id="paint84_linear" x1="218.341" y1="39.5613" x2="218.341" y2="27.2733" gradientUnits="userSpaceOnUse">
<stop stop-color="#2AF598"/>
<stop offset="1" stop-color="#009EFD"/>
</linearGradient>
<linearGradient id="paint85_linear" x1="226.679" y1="39.8667" x2="226.679" y2="30.8934" gradientUnits="userSpaceOnUse">
<stop stop-color="#2AF598"/>
<stop offset="1" stop-color="#009EFD"/>
</linearGradient>
</defs>
</svg>
